<?xml version="1.0" encoding="utf-8"?>
<!-- Generator: Adobe Illustrator 27.5.0, SVG Export Plug-In . SVG Version: 6.00 Build 0)  -->
<svg version="1.1" xmlns="http://www.w3.org/2000/svg" xmlns:xlink="http://www.w3.org/1999/xlink" x="0px" y="0px"
	 viewBox="0 0 500 500" style="enable-background:new 0 0 500 500;" xml:space="preserve">
<g id="BACKGROUND">
	<rect style="fill:#FFE69D;" width="500" height="500"/>
	<path style="fill:#6C3585;" d="M0,282.492c0,0,244.64-64.563,500,0V500H0V282.492z"/>
</g>
<g id="OBJECTS">
	<g>
		<defs>
			<rect id="SVGID_1_" width="500" height="500"/>
		</defs>
		<clipPath id="SVGID_00000115477409253047742830000006778504138589867698_">
			<use xlink:href="#SVGID_1_"  style="overflow:visible;"/>
		</clipPath>
		<rect style="clip-path:url(#SVGID_00000115477409253047742830000006778504138589867698_);fill:none;" width="500" height="500"/>
		<path style="opacity:0.19;clip-path:url(#SVGID_00000115477409253047742830000006778504138589867698_);fill:#77391C;" d="
			M84.84,294.194c-13.406-15.297-23.994-33.364-30.993-52.888c-3.794-10.583-6.454-22.802-1.673-32.926
			c7.199-15.245,26.334-17.506,40.588-25.38c-4.207-18.058-6.797-39.42,4.919-53.258c7.748-9.151,19.777-12.401,31.067-15.202
			c13.908-3.45,27.815-6.9,41.722-10.35c-3.559-10.496,6.889-23.018,17.14-20.542c-0.168-12.104,12.683-22.229,23.555-18.557
			c2.064,0.697,4.267,1.796,6.292,0.978c1.25-0.505,2.149-1.652,3.055-2.696c11.975-13.797,35.34-13.557,47.061,0.483
			c1.856,2.223,3.425,4.696,4.989,7.16c3.906-3.011,8.831-5.342,13.046-2.844s6.853,7.715,6.485,12.823
			c4.141-5.898,13.677-3.725,17.734,2.238c4.057,5.963,4.214,13.862,4.213,21.217c10.943,1.359,21.886,2.718,32.829,4.077
			c5.139,0.638,10.331,1.29,15.196,3.158c12.358,4.745,21.139,16.925,25.578,30.051c4.438,13.126,5.157,27.287,5.832,41.214
			c8.283,2.752,15.415,3.303,23.698,6.055c5.025,1.669,10.121,3.374,14.537,6.418c8.348,5.755,13.459,16.004,14.514,26.507
			c1.055,10.504-1.652,21.177-6.397,30.463c-3.374,6.604-7.785,12.666-10.191,19.731c-1.679,4.93-2.319,10.176-3.105,15.352
			c-2.14,14.092-5.474,28.096-11.383,40.92c-11.432,24.808-32.077,43.946-55.293,56.428c-23.215,12.482-48.97,18.767-74.746,22.586
			c-25.626,3.797-52.169,5.195-76.989-2.56c-32.427-10.132-58.699-34.701-86.58-54.982c-9.396-6.835-19.241-13.394-26.43-22.771
			C87.323,316.94,84.434,307.278,84.84,294.194z"/>
		<g style="clip-path:url(#SVGID_00000115477409253047742830000006778504138589867698_);">
			<ellipse style="fill:#683FB7;" cx="246.384" cy="399.299" rx="165.978" ry="40.22"/>
			<ellipse style="fill:#8951E0;" cx="246.384" cy="395.722" rx="115.717" ry="24.463"/>
		</g>
		
			<ellipse style="opacity:0.6;clip-path:url(#SVGID_00000115477409253047742830000006778504138589867698_);fill:#331561;" cx="397.655" cy="395.842" rx="25.374" ry="11.903"/>
		<path style="opacity:0.6;clip-path:url(#SVGID_00000115477409253047742830000006778504138589867698_);fill:#331561;" d="
			M63.005,409.694c-1.938,3.73-3.303,7.758-4.032,11.898c-0.136,0.771-0.239,1.613,0.144,2.296c0.492,0.879,1.593,1.177,2.582,1.366
			c7.402,1.417,15.092,1.312,22.453-0.305c2.307-0.507,4.627-1.181,6.583-2.505c1.132-0.766,2.134-1.744,3.378-2.307
			c1.373-0.621,2.926-0.685,4.432-0.681c11.162,0.036,22.293,3.401,31.605,9.556c4.875,3.222,9.733,7.356,15.576,7.429
			c0.036-7.199,2.562-14.362,7.05-19.993c2.928-3.673,6.408-6.568,8.737-10.628c2.196-3.825,1.589-7.16,6.578-9.345
			c2.229-0.976,3.839-1.618,4.173-3.957c-8.34-1.886-18.007-2.693-26.541-3.095c-13.68-0.645-27.361-1.29-41.041-1.935
			c-4.455-0.21-8.961-0.417-13.339,0.437C79.229,390.289,68.697,398.742,63.005,409.694z"/>
		<path style="opacity:0.35;clip-path:url(#SVGID_00000115477409253047742830000006778504138589867698_);fill:#331561;" d="
			M214.417,370.151c-13.504,1.671-28.004,3.795-37.863,13.174c-5.609,5.336-9.078,12.479-12.43,19.458
			c-0.699,1.455-1.415,3.001-1.265,4.608c0.31,3.333,3.998,5.154,7.235,6.005c11.112,2.92,23.22,1.884,33.675-2.879
			c7.992-3.642,15.076-9.386,23.565-11.637c8.059-2.137,16.596-0.911,24.784,0.664c10.113,1.945,20.126,4.405,29.989,7.367
			c12.152,3.649,24.876,8.109,37.228,5.207c4.299-1.01,8.529-3.017,11.262-6.485c2.733-3.468,3.636-8.586,1.38-12.383
			c-2.387-4.017-7.982-6.647-7.594-11.303c0.106-1.274,0.671-2.667-0.009-3.75c-0.561-0.892-1.725-1.144-2.764-1.316
			c-19.947-3.305-39.87-6.871-59.858-9.916C245.904,364.551,230.218,368.531,214.417,370.151z"/>
		<path style="opacity:0.6;clip-path:url(#SVGID_00000115477409253047742830000006778504138589867698_);fill:#331561;" d="
			M86.598,344.409c-0.64,1.778-1.194,3.685-0.733,5.514c1.221,4.852,8.037,5.866,13.368,5.855
			c101.744-0.221,203.488-0.443,305.232-0.664c3.872-0.008,8.478-0.397,10.363-3.55c2.092-3.5-0.676-7.73-3.323-10.901
			c-5.362-6.423-10.724-12.845-16.087-19.268c-4.476-5.361-9.007-10.775-14.68-15.033c-18.531-13.909-44.745-12.818-68.414-11.314
			c-36.396,2.311-72.849,3.948-109.331,4.598c-18.238,0.325-36.482,0.407-54.724,0.199c-11.867-0.135-21.655-1.61-31.216,5.751
			C104.064,315.598,92.008,329.381,86.598,344.409z"/>
		<g style="clip-path:url(#SVGID_00000115477409253047742830000006778504138589867698_);">
			<g>
				<g>
					<g>
						<path style="fill:#CB8A6A;" d="M125.029,326.518l3.966,19.391c0.311,1.519,1.647,2.609,3.197,2.609h4.148
							c1.561,0,2.904-1.106,3.203-2.638l3.485-17.862L125.029,326.518z"/>
						<path style="fill:#CB8A6A;" d="M363.281,326.518l-3.966,19.391c-0.311,1.519-1.647,2.609-3.197,2.609h-4.148
							c-1.561,0-2.904-1.106-3.203-2.638l-3.485-17.862L363.281,326.518z"/>
					</g>
				</g>
				<g>
					<g>
						<path style="fill:#FB509B;" d="M387.259,198.518c-7.02,2.44-12.64,5.94-17.15,10.04c-19.97,18.11-18.02,47.75-18.02,47.75
							h-213.12c0,0,0.43-6.49-1.17-15.25c-1.33-7.34-4.08-16.28-9.68-24.33c-5.23-7.52-12.95-14.26-24.32-18.21
							c0,0-3.42-39,14.17-57.5c8.7-9.16,30.19-15.38,54.63-19.32c0.52-0.08,1.04-0.17,1.57-0.25c24.04-3.76,50.7-5.37,70.77-5.43
							h1.18c22.13,0.07,52.27,2.01,78.07,6.66c22.02,3.96,40.89,9.9,48.9,18.34C390.679,159.518,387.259,198.518,387.259,198.518z"
							/>
						<path style="opacity:0.28;fill:#F6B8FF;" d="M134.441,137.861c-7.041,3.109-14.312,8.415-14.968,16.084
							c-0.079,0.928,0.016,2.012,0.776,2.552c0.66,0.469,1.567,0.336,2.342,0.097c3.523-1.087,6.243-3.835,9.366-5.794
							c7.507-4.709,16.924-4.676,25.547-6.716c2.822-0.667,5.747-1.672,7.6-3.903C176.778,126.124,138.509,136.065,134.441,137.861z
							"/>
						<path style="opacity:0.28;fill:#F6B8FF;" d="M358.707,137.861c7.041,3.109,14.312,8.415,14.968,16.084
							c0.079,0.928-0.016,2.012-0.776,2.552c-0.66,0.469-1.567,0.336-2.342,0.097c-3.523-1.087-6.243-3.835-9.366-5.794
							c-7.507-4.709-16.924-4.676-25.547-6.716c-2.822-0.667-5.747-1.672-7.6-3.903C316.37,126.124,354.638,136.065,358.707,137.861
							z"/>
					</g>
					<g>
						<path style="fill:#C23681;" d="M429.949,211.018c0,0-20.919-19-43.419-18s-40.704,22.77-49.602,46.135
							c0,0,16.569,19.365,21.335,41.365C358.263,280.518,373.868,188.018,429.949,211.018z"/>
						<path style="fill:#C23681;" d="M65.25,211.018c0,0,20.919-19,43.419-18s40.704,22.77,49.602,46.135
							c0,0-16.569,19.365-21.335,41.365C136.936,280.518,121.331,188.018,65.25,211.018z"/>
						<path style="fill:none;stroke:#000000;stroke-miterlimit:10;" d="M61.131,216.578"/>
					</g>
					<g>
						<path style="fill:#FB509B;" d="M435.529,235.018c-10.5,24-37.5,86-67,95c-4.3,1.31-9.54,2.43-15.41,3.39
							c-23.22,3.79-56.4,5.02-81.46,5.42c-7.03,0.12-13.42,0.16-18.77,0.18v0.01h-9.69v-0.01c-6.66-0.02-14.92-0.09-24.03-0.27
							c-25.93-0.52-58.68-1.98-80.45-6.07c-4.16-0.78-7.92-1.66-11.16-2.65c-29.5-9-56.5-71-67-95s22-41,48.5-20
							c23.11,18.32,26.45,55.27,30.91,67.4c0.65,1.78,1.32,3.02,2.09,3.6c5.48,4.11,64.75,3.79,101.14,3.7v-0.01h9.69v0.01
							c36.39,0.09,95.66,0.41,101.14-3.7c0.79-0.59,1.48-1.89,2.15-3.75c4.43-12.29,7.83-49.01,30.85-67.25
							C413.529,194.018,446.029,211.018,435.529,235.018z"/>
						<path style="opacity:0.28;fill:#F6B8FF;" d="M380.544,239.614c3.927-6.698,8.447-13.182,14.434-18.116
							c5.987-4.934,13.617-8.217,21.355-7.757c2.721,0.162,5.561,0.859,7.508,2.772c0.937,0.921,1.622,2.44,0.863,3.513
							c-0.515,0.728-1.482,0.94-2.359,1.092c-9.395,1.63-19.648,3.153-26.206,10.089c-2.62,2.772-4.418,6.204-6.184,9.589
							c-5.125,9.83-9.733,19.935-14.677,29.857c-1.699,3.41-3.074,16.673-8.85,15.348c-7.165-1.643,0.33-18.934,2.078-23.064
							C371.917,254.884,376.125,247.152,380.544,239.614z"/>
						<path style="opacity:0.28;fill:#F6B8FF;" d="M115.392,239.614c-3.926-6.698-8.447-13.182-14.434-18.116
							c-5.987-4.934-13.617-8.217-21.355-7.757c-2.721,0.162-5.561,0.859-7.508,2.772c-0.937,0.921-1.622,2.44-0.864,3.513
							c0.515,0.728,1.482,0.94,2.359,1.092c9.395,1.63,19.648,3.153,26.206,10.089c2.62,2.772,4.419,6.204,6.184,9.589
							c5.125,9.83,9.732,19.935,14.677,29.857c1.699,3.41,3.074,16.673,8.85,15.348c7.165-1.643-0.33-18.934-2.078-23.064
							C124.019,254.884,119.811,247.152,115.392,239.614z"/>
					</g>
					<g>
						<path style="fill:#C23681;" d="M135.784,280.518c0,0-4.097-12.104,19.827-39.905c1.762-2.048,4.202-3.44,6.902-3.985
							c11.577-2.34,45.475-8.359,79.796-6.459c2.969,0.164,5.324,2.474,5.431,5.341c0.335,8.961,0.684,29.089-1.477,53.008
							L135.784,280.518z"/>
						<path style="fill:#C23681;" d="M358.263,280.518c0,0,4.097-12.104-19.827-39.905c-1.762-2.048-4.202-3.44-6.902-3.985
							c-11.577-2.34-45.475-8.359-79.797-6.459c-2.969,0.164-5.324,2.474-5.431,5.341c-0.335,8.961-0.684,29.089,1.477,53.008
							L358.263,280.518z"/>
						<path style="fill:#FF61AD;" d="M135.563,282.579c0.039,1.462,0.177,3.08,0.463,4.827c0.732,4.47,4.963,7.866,10.111,8.049
							c14.969,0.531,49.458,1.385,91.134-0.016c5.694-0.191,10.23-4.286,10.23-9.281c0-1.249-0.071-2.639-0.242-4.174
							c-0.505-4.532-4.647-8.096-9.828-8.432c-17.221-1.116-58.059-3.178-92.213-0.383
							C139.695,273.622,135.432,277.718,135.563,282.579z"/>
						<path style="fill:#FF61AD;" d="M358.261,282.579c-0.04,1.462-0.177,3.08-0.463,4.827c-0.732,4.47-4.963,7.866-10.111,8.049
							c-14.969,0.531-49.458,1.385-91.134-0.016c-5.694-0.191-10.229-4.286-10.23-9.281c0-1.249,0.071-2.639,0.242-4.174
							c0.505-4.532,4.647-8.096,9.828-8.432c17.221-1.116,58.059-3.178,92.213-0.383
							C354.129,273.622,358.392,277.718,358.261,282.579z"/>
					</g>
				</g>
			</g>
		</g>
		<path style="opacity:0.36;clip-path:url(#SVGID_00000115477409253047742830000006778504138589867698_);fill:#421866;" d="
			M377.324,181.988c-2.311,5.21-6.088,9.7-7.839,15.12c-1.17,3.63-1.377,7.52-1.328,11.45c0.069,8.34,1.229,16.85-3.354,23.48
			c-1.692,2.45-4.072,4.42-5.37,7.11c-1.023,2.11-1.289,4.49-1.751,6.79c-3.305,16.39-17.183,28.95-32.576,34.87
			c-15.393,5.93-32.252,6.29-48.707,6.14c-32.871-0.3-67.1-2.75-95.633-19.33c-6.492-3.77-12.609-8.24-19.426-11.31
			c-0.551-0.25-1.111-0.49-1.672-0.72c-4.436-1.81-9.226-3-13.062-5.9c-2.97-2.24-5.124-5.31-6.944-8.63
			c-1.013-1.84-1.918-3.75-2.793-5.65c-2.793-5.98-5.646-12.23-6.728-18.68c-0.423-2.49-0.58-5.01-0.374-7.56
			c0.443-5.38,2.518-10.76,1.387-16.03c-1.436-6.77-7.918-12.06-7.711-18.97c0.167-5.23,4.16-9.46,8.272-12.6
			c12.088-9.24,27.55-13.79,42.628-12.55c1.151,0.09,2.38,0.21,3.413-0.32c4.367-2.22,0.197-11.73,4.947-12.89
			c-4.338-3.4-6.934-8.83-7.269-14.36c23.645-3.76,49.867-5.37,69.608-5.43h1.161c21.766,0.07,51.412,2.01,76.788,6.66
			c-0.079,4.26-0.433,8.53-2.007,12.45c-2.007,4.99-6.472,9.35-11.773,9.49c13.19,13.71,32.556,21.01,51.353,19.35
			c5.262-0.47,11.252-1.39,15.236,2.14C380.029,169.858,379.626,176.788,377.324,181.988z"/>
		<g style="clip-path:url(#SVGID_00000115477409253047742830000006778504138589867698_);">
			<path style="fill:#F8E480;" d="M243.199,244.015c0.53,5.64-8.45,3.34-13.51,4.5c-12.09,2.79-51.66,7.79-58.16,14.88
				s-12.38,2.94-15,1.62c-0.83-0.41-1.13-1.76-1.16-3.41c-0.13-6.69-1.88-13.26-5.12-19.11c-1-1.81-1.94-3.58-2.8-5.29
				c-14.85-29.32-10.61-43.98-11.93-48.69c-3.51-12.5-8.49-9-3.49-21s19-11,43.5-13.06c24.5-2.07,29.5-12.94,40.9-7.44
				c5.55,2.68,6.66,7.72,7.41,14.06c0.78,6.7,1.15,14.84,5.85,23.19C238.849,200.515,242.669,238.385,243.199,244.015z"/>
			<path style="fill:#F8E480;" d="M371.049,183.355c-3.87,5.46-6.37,11.78-7.25,18.42c-1.67,12.67-4.33,22.2-7.19,29.44
				c-5.53,14.05-11.81,19.53-13.02,22.73c-4.6,12.14,1.48,12.28-9.67,18.96s-21.82-2.44-42.75-15.34
				c-20.94-12.89-31.42-7.12-37.32-18.31c-5.89-11.2,9.18-19.33,11.46-37.85c1.28-10.34,7.91-25.12,14.01-36.99
				c4.83-9.39,9.34-16.95,10.63-19.09c2.92-4.85,8.77,2.33,13.54,4.4c11.38,4.94,46.18,24.43,55.62,22.59s11.7,4.99,13.03,7.61
				C372.559,180.745,371.999,182.015,371.049,183.355z"/>
			<path style="opacity:0.35;fill:#D3635D;" d="M229.689,184.265c9.16,16.25,12.98,54.12,13.51,59.75c0.53,5.64-8.45,3.34-13.51,4.5
				c-12.09,2.79-51.66,7.79-58.16,14.88s-12.38,2.94-15,1.62c-0.83-0.41-1.13-1.76-1.16-3.41c-0.13-6.69-1.88-13.26-5.12-19.11
				c-1-1.81-1.94-3.58-2.8-5.29c-0.51-6.17-0.81-12.09-1.28-17.13c-0.19-2.16-0.39-4.32-0.42-6.49c-0.05-3.92,0.47-7.84,1.51-11.62
				c4.71-17.11,19.93-29.86,36.69-35.72c12.74-4.45,26.33-5.49,39.89-5.17C224.619,167.775,224.989,175.915,229.689,184.265z"/>
			<path style="opacity:0.35;fill:#D3635D;" d="M356.609,231.215c-5.53,14.05-11.81,19.53-13.02,22.73
				c-4.6,12.14,1.48,12.28-9.67,18.96s-21.82-2.44-42.75-15.34c-20.94-12.89-31.42-7.12-37.32-18.31
				c-5.89-11.2,9.18-19.33,11.46-37.85c1.28-10.34,7.91-25.12,14.01-36.99c3.49-0.01,6.98-0.13,10.47-0.4
				c7.62-0.6,15.33-1.89,22.85-0.54c18.06,3.24,29.85,20.25,39.42,35.9c1.51,2.47,3.07,5.1,3.16,7.99c0.1,2.9-1.85,6.08-4.74,6.27
				C352.839,219.335,355.029,225.225,356.609,231.215z"/>
		</g>
		<path style="opacity:0.36;clip-path:url(#SVGID_00000115477409253047742830000006778504138589867698_);fill:#421866;" d="
			M358.119,296.108c0.15,12.59-1.56,25.19-5,37.3c-23.22,3.79-56.4,5.02-81.46,5.42c2.98-11.23,14.45-20.71,11.73-31.99
			c-5.37,0.8-11.1-1.49-14.43-5.79c-11.87,2.31-24.28,1.76-35.89-1.57c-1.25-0.36-2.54-0.76-3.83-0.59
			c-1.46,0.2-2.72,1.09-3.91,1.96c-4.33,3.15-8.65,6.29-12.98,9.44c-0.88,0.63-1.8,1.33-2.17,2.34c-0.43,1.14-0.08,2.41,0.29,3.56
			c2.37,7.49,4.6,15.71,8.7,22.55c-25.93-0.52-58.68-1.98-80.45-6.07c-0.8-2.53-1.46-5.1-2.01-7.67c-2.98-14.09-2.4-29.6,3.26-42.58
			c0.65,1.78,1.32,3.02,2.09,3.6c5.48,4.11,64.75,3.79,101.14,3.7v-0.01h9.69v0.01c36.39,0.09,95.66,0.41,101.14-3.7
			c0.79-0.59,1.48-1.89,2.15-3.75C357.739,286.658,358.069,291.428,358.119,296.108z"/>
		<g style="clip-path:url(#SVGID_00000115477409253047742830000006778504138589867698_);">
			<g>
				<g>
					<g>
						<path style="fill:#F3D375;" d="M222.679,375.995c-0.11,0.12-0.21,0.24-0.32,0.36c-12.2,13.76-30.6,26.75-36.62,30.84
							c-0.65,0.44-1.43,0.65-2.18,0.6c-0.7-0.03-1.37-0.27-1.93-0.73c-12.96-10.59,18.15-26.73,16.24-30.55c-2-4-7.5-10-7.5-10
							l20.45-10.5c4.43,3.73,9.78,11.88,12.22,15.81C223.849,373.135,223.709,374.825,222.679,375.995z"/>
						<path style="opacity:0.35;fill:#D3635D;" d="M222.679,375.995c-0.11,0.12-0.21,0.24-0.32,0.36c-2.67-3.01-3.42-7.8-7.02-9.58
							c-3.72-1.84-8.24,0.86-10.49,4.34c-2.26,3.48-3.17,7.68-5.36,11.21c-3.06,4.94-8.31,8.07-12.34,12.27
							c-4.93,5.16-5.06,9.27-3.59,13.2c-0.7-0.03-1.37-0.27-1.93-0.73c-12.96-10.59,18.15-26.73,16.24-30.55c-2-4-7.5-10-7.5-10
							l20.45-10.5c4.43,3.73,9.78,11.88,12.22,15.81C223.849,373.135,223.709,374.825,222.679,375.995z"/>
					</g>
					<g>
						<path style="fill:#917AFE;" d="M214.089,340.788c3.7,7.72,6.53,11.73,6.53,11.73s-22.54,17.83-47.9,23.91
							c-0.12,0.03-0.23,0.06-0.35,0.09c0,0-37.4-40.06-24.5-92.5c12.89-52.44,62.95-54.5,62.95-54.5l11.55,37.12
							c0,0-26.01,17.38-19,44.38C206.689,323.828,210.739,333.818,214.089,340.788z"/>
						<path style="opacity:0.31;fill:#B6ADFF;" d="M175.226,353.943c1.627,1.959,3.458,3.878,5.828,4.808
							c2.371,0.931,5.406,0.606,7.001-1.38c1.691-2.106,1.24-5.187,0.376-7.745c-2.909-8.609-9.383-15.677-12.189-24.321
							c-2.063-6.357,0.979-23.581-3.741-27.936c-5.739-5.295-10.23,3.425-11.242,8.355C157.919,322,164.906,341.519,175.226,353.943
							z"/>
						<path style="opacity:0.36;fill:#181868;" d="M203.369,311.018c3.32,12.81,7.37,22.8,10.72,29.77
							c-1.66-1.43-3.18-3.03-4.55-4.73c-4.84-6.03-7.93-13.26-10.52-20.55c-1.32-3.72-2.6-7.61-5.32-10.46
							c-2.53-2.67-6.43-4.74-6.67-8.41c-0.13-1.96,0.81-4.27-0.55-5.69c-0.59-0.62-1.46-0.85-2.28-1.06
							c-10.12-2.58-24.66-9.15-28.5-2.16c-4.67,8.48-3.17,28.93-2.83,32.02c1.38,12.5,4.45,24.82,9.1,36.51
							c2.29,5.75,4.86,11.5,8.2,16.73c0.73,1.14,1.65,2.27,2.55,3.44c-0.12,0.03-0.23,0.06-0.35,0.09c0,0-37.4-40.06-24.5-92.5
							c12.89-52.44,62.95-54.5,62.95-54.5l11.55,37.12C222.369,266.638,196.359,284.018,203.369,311.018z"/>
					</g>
				</g>
				<g>
					<g>
						<path style="fill:#F3D375;" d="M314.689,407.065c-0.45,0.37-0.98,0.59-1.52,0.68c-0.88,0.16-1.82-0.02-2.59-0.55
							c-5.99-4.07-24.22-16.94-36.42-30.62c-0.18-0.19-0.35-0.39-0.52-0.58c-1.03-1.17-1.18-2.86-0.36-4.17
							c2.44-3.93,7.78-12.08,12.22-15.81l20.45,10.5c0,0-5.5,6-7.5,10C296.539,380.335,327.649,396.475,314.689,407.065z"/>
						<path style="opacity:0.35;fill:#D3635D;" d="M314.689,407.065c-0.45,0.37-0.98,0.59-1.52,0.68c1.45-3.91,1.31-8.02-3.61-13.15
							c-4.02-4.2-9.27-7.33-12.34-12.27c-2.18-3.53-3.1-7.73-5.35-11.21c-2.26-3.48-6.77-6.18-10.49-4.34
							c-3.65,1.8-4.37,6.7-7.13,9.7c-0.03,0.03-0.06,0.07-0.09,0.1c-0.18-0.19-0.35-0.39-0.52-0.58c-1.03-1.17-1.18-2.86-0.36-4.17
							c2.44-3.93,7.78-12.08,12.22-15.81l20.45,10.5c0,0-5.5,6-7.5,10C296.539,380.335,327.649,396.475,314.689,407.065z"/>
					</g>
					<g>
						<path style="fill:#917AFE;" d="M273.95,266.643c0,0,26.004,17.375,19.002,44.375c-7.002,27-17.252,41.5-17.252,41.5
							s22.75,18,48.25,24c0,0,37.396-40.059,24.5-92.5c-12.896-52.441-62.954-54.5-62.954-54.5L273.95,266.643z"/>
						<path style="opacity:0.31;fill:#B6ADFF;" d="M317.439,353.943c-1.627,1.959-3.458,3.878-5.828,4.808
							c-2.371,0.931-5.406,0.606-7.001-1.38c-1.69-2.106-1.24-5.187-0.375-7.745c2.909-8.609,9.383-15.677,12.189-24.321
							c2.064-6.357-0.979-23.581,3.741-27.936c5.739-5.295,10.23,3.425,11.242,8.355C334.746,322,327.759,341.519,317.439,353.943z"
							/>
						<path style="opacity:0.36;fill:#181868;" d="M292.949,311.018c-3.32,12.81-7.37,22.8-10.72,29.77
							c1.66-1.43,3.18-3.03,4.55-4.73c4.84-6.03,7.93-13.26,10.52-20.55c1.32-3.72,2.6-7.61,5.32-10.46
							c2.53-2.67,6.43-4.74,6.67-8.41c0.13-1.96-0.81-4.27,0.55-5.69c0.59-0.62,1.46-0.85,2.28-1.06
							c10.12-2.58,24.66-9.15,28.5-2.16c4.67,8.48,3.17,28.93,2.83,32.02c-1.38,12.5-4.45,24.82-9.1,36.51
							c-2.29,5.75-4.86,11.5-8.2,16.73c-0.73,1.14-1.65,2.27-2.55,3.44c0.12,0.03,0.23,0.06,0.35,0.09c0,0,37.4-40.06,24.5-92.5
							c-12.89-52.44-62.95-54.5-62.95-54.5l-11.55,37.12C273.949,266.638,299.959,284.018,292.949,311.018z"/>
					</g>
				</g>
			</g>
			<g>
				<path style="fill:#79BCBC;" d="M320.529,262.018c0,0-19.4,13.07-61.71,15.21c-0.93,0.04-1.86,0.08-2.81,0.12
					c-2.9,0.11-5.91,0.17-9.02,0.17c-50.54,0-61.46-17.06-61.46-17.06s-18.59-71.94,66.83-71.94S320.529,262.018,320.529,262.018z"
					/>
				<path style="opacity:0.21;fill:#262654;" d="M252.359,188.518c-85.42,0-66.83,71.94-66.83,71.94s10.92,17.06,61.46,17.06
					c3.11,0,6.12-0.06,9.02-0.17c0.95-0.04,1.88-0.08,2.81-0.12c42.31-2.14,61.71-15.21,61.71-15.21
					S337.779,188.518,252.359,188.518z M303.899,248.938c-0.8,5.49-5.77,10.77-11.23,9.79c-2.84-0.5-5.14-2.5-7.65-3.9
					c-4.87-2.7-11.21-3.07-15.93-0.1c-4.71,2.97-7.09,9.55-4.59,14.53c-2.29,0.74-4.96,0.16-6.74-1.45
					c-0.16,0.14-0.32,0.29-0.45,0.44c-5.85-2.32-19.28,1.18-24.12,0.15c3.82-3.41,1.85-10.29-2.5-12.99
					c-4.35-2.7-9.87-2.38-14.95-1.73c-5.08,0.64-10.41,1.5-15.18-0.33c-6.92-2.66-10.81-11.35-8.18-18.28
					c3.03,2.68,8.02,0.99,10.74-2c2.73-2.99,4.14-6.96,6.67-10.11c2.54-3.15,7.12-5.43,10.59-3.34c2.11,1.26,3.13,3.72,4.62,5.67
					c3.33,4.35,9,6.14,14.39,7.12c11.56,2.11,24.52,1.33,33.56-6.17c2.51-2.08,5.01-4.79,8.28-4.8c4.03-0.02,6.71,3.97,9.12,7.21
					c2.4,3.24,6.71,6.38,10.13,4.22C302.569,237.998,304.709,243.448,303.899,248.938z"/>
				<polygon style="fill:#F3D375;" points="248.197,224.19 253.657,236.197 267.282,239.085 257.031,246.225 259.116,256.307 
					248.197,251.547 237.279,256.307 239.364,246.225 229.113,239.085 242.738,236.197 				"/>
			</g>
			<g>
				<g>
					<path style="fill:#481652;" d="M280.191,272.768c-5.75-6.25-9.75-3.25-18.162-2c-7.731,1.149-15.035,1.242-16.169,1.249
						c-1.134-0.007-8.438-0.1-16.169-1.249c-8.412-1.25-12.412-4.25-18.162,2s-20.75,21.75-11,27.25
						c4.71,2.657,20.856-4.294,26.678-9.147c0,0,7.905,1.365,18.483,1.394v0.003c0.057,0,0.112-0.001,0.169-0.001
						c0.057,0,0.112,0.001,0.169,0.001v-0.003c10.578-0.029,18.483-1.394,18.483-1.394c5.822,4.853,21.967,11.804,26.678,9.147
						C300.941,294.518,285.941,279.018,280.191,272.768z"/>
					<g>
						<path style="fill:#481652;" d="M230.029,266.643h-8.75c-0.898,0-1.625-0.728-1.625-1.625l0,0c0-0.897,0.727-1.625,1.625-1.625
							h8.75c0.897,0,1.625,0.728,1.625,1.625l0,0C231.654,265.916,230.927,266.643,230.029,266.643z"/>
						<polygon style="fill:#481652;" points="223.779,266.143 223.779,270.518 227.404,271.768 227.404,266.143 						"/>
					</g>
					<g>
						<path style="fill:#481652;" d="M262.279,266.643h8.75c0.897,0,1.625-0.728,1.625-1.625l0,0c0-0.897-0.728-1.625-1.625-1.625
							h-8.75c-0.897,0-1.625,0.728-1.625,1.625l0,0C260.654,265.916,261.382,266.643,262.279,266.643z"/>
						<polygon style="fill:#481652;" points="268.529,266.143 268.529,270.518 264.904,271.768 264.904,266.143 						"/>
					</g>
					<circle style="fill:#481652;" cx="244.674" cy="281.706" r="2.312"/>
				</g>
				<path style="fill:#481652;" d="M245.874,282.606c-0.067,0.102-0.23,0.399-0.338,0.632c-0.114,0.252-0.22,0.52-0.32,0.786
					l-0.253,0.834l-0.185,0.864c-0.163,1.173-0.267,2.377-0.117,3.594c0.209,2.432,0.987,4.841,2.024,7.141l0.85,1.704
					c0.277,0.57,0.651,1.101,0.97,1.654c0.626,1.114,1.4,2.152,2.152,3.2c1.527,2.087,3.247,3.989,5.025,6.127
					c3.451,4.217,6.7,8.798,8.676,14.194c0.958,2.691,1.604,5.586,1.571,8.549c0.031,1.479-0.18,2.954-0.442,4.409
					c-0.327,1.439-0.732,2.866-1.312,4.21c-2.265,5.441-6.15,9.767-10.274,13.448c-2.073,1.856-4.26,3.544-6.502,5.128l-1.657,1.177
					l-1.548,1.125c-0.527,0.36-0.997,0.791-1.497,1.185c-0.488,0.407-1,0.788-1.456,1.23c-1.919,1.668-3.634,3.541-5.244,5.485
					c-1.587,1.968-2.967,4.086-4.201,6.28c-2.414,4.423-4.042,9.255-4.845,14.237c-1.622,9.988,0.023,20.401,3.87,29.85
					c1.889,4.751,4.374,9.269,7.229,13.534c0.688,1.083,1.485,2.097,2.219,3.149l2.362,3.431c1.658,2.253,2.955,4.732,4.36,7.147
					l0.519,0.911l0.45,0.946l0.899,1.893l0.897,1.895l0.448,0.948l0.382,0.976l1.51,3.912c0.268,0.647,0.484,1.311,0.679,1.982
					l0.615,2.005c0.898,2.654,1.427,5.403,2.082,8.123c0.451,2.759,0.995,5.509,1.206,8.305c0.555,5.572,0.635,11.207,0.009,16.848
					l-0.601,4.232c-0.3,1.413-0.568,2.823-0.925,4.238c-0.443,1.421-0.744,2.824-1.366,4.263c-0.303,0.72-0.514,1.418-0.902,2.155
					l-1.181,2.194c-1.091,2.028-3.62,2.788-5.648,1.697c-2.028-1.091-2.788-3.62-1.696-5.648l0.313-0.588
					c0.238-0.448,0.484-0.89,0.739-1.33c0.258-0.436,0.442-1.028,0.672-1.533c0.485-1.005,0.765-2.231,1.152-3.352
					c0.321-1.171,0.574-2.389,0.863-3.585l0.605-3.703c0.662-4.991,0.7-10.119,0.3-15.196c-0.132-2.551-0.587-5.067-0.938-7.597
					c-0.555-2.491-0.973-5.02-1.75-7.458l-0.522-1.845c-0.164-0.619-0.348-1.23-0.582-1.825l-1.305-3.605l-0.328-0.901l-0.394-0.873
					l-0.786-1.748l-0.785-1.75l-0.392-0.876l-0.459-0.841c-1.245-2.232-2.374-4.538-3.859-6.629l-2.119-3.229
					c-0.776-1.156-1.608-2.27-2.333-3.46c-2.998-4.688-5.597-9.656-7.557-14.896c-3.984-10.413-5.602-21.967-3.551-33.132
					c0.534-2.776,1.229-5.53,2.21-8.19c0.988-2.655,2.155-5.247,3.574-7.701c1.437-2.44,3.04-4.783,4.86-6.946
					c1.842-2.139,3.801-4.18,5.961-5.982c0.518-0.477,1.088-0.888,1.636-1.326c0.559-0.423,1.091-0.885,1.676-1.27l1.725-1.199
					l1.638-1.113c2.159-1.458,4.247-3.004,6.197-4.678c3.898-3.32,7.395-7.152,9.347-11.611c2.032-4.427,2.037-9.448,0.4-14.152
					c-1.607-4.727-4.522-9.111-7.748-13.21c-1.597-2.009-3.431-4.126-5.016-6.391c-0.785-1.142-1.586-2.27-2.251-3.504
					c-0.338-0.612-0.723-1.191-1.02-1.829l-0.901-1.907c-1.104-2.591-1.948-5.357-2.139-8.272c-0.139-1.448-0.002-2.936,0.246-4.398
					l0.259-1.093c0.105-0.362,0.234-0.72,0.353-1.079c0.141-0.356,0.289-0.709,0.46-1.062c0.19-0.366,0.336-0.664,0.655-1.11
					c0.48-0.673,1.415-0.83,2.089-0.35c0.657,0.468,0.822,1.37,0.384,2.039L245.874,282.606z"/>
			</g>
			<g>
				<g>
					<g style="opacity:0.51;">
						<path style="fill:#77391C;" d="M225.154,281.852c-1.574,0.553-3.285,0.736-4.969,0.625c-1.686-0.107-3.373-0.474-4.938-1.142
							c-1.546-0.693-3.052-1.529-4.296-2.68c-0.673-0.511-1.201-1.182-1.781-1.781c-0.527-0.651-1.011-1.336-1.474-2.022
							c0.64,0.543,1.19,1.154,1.823,1.677c0.65,0.502,1.229,1.077,1.917,1.513l0.991,0.699l1.045,0.608
							c0.339,0.217,0.7,0.393,1.064,0.563c0.366,0.164,0.712,0.375,1.095,0.498c1.47,0.65,3.043,1.034,4.635,1.292
							C221.863,281.936,223.502,282.025,225.154,281.852z"/>
					</g>
					<g style="opacity:0.51;">
						<path style="fill:#77391C;" d="M215.529,287.185c-1.226,0.061-2.456-0.12-3.647-0.424c-1.197-0.296-2.349-0.76-3.449-1.324
							c-0.552-0.279-1.071-0.62-1.595-0.947c-0.488-0.383-1.012-0.715-1.452-1.154c-0.939-0.802-1.716-1.783-2.357-2.819
							c0.96,0.767,1.851,1.55,2.841,2.207c0.969,0.677,1.973,1.296,3.025,1.826C210.981,285.656,213.196,286.486,215.529,287.185z"
							/>
					</g>
					<g style="opacity:0.51;">
						<path style="fill:#77391C;" d="M274.585,281.852c1.653,0.173,3.291,0.084,4.889-0.149c1.592-0.258,3.165-0.642,4.635-1.292
							c0.383-0.124,0.729-0.335,1.095-0.498c0.364-0.17,0.725-0.346,1.064-0.563l1.045-0.608l0.991-0.699
							c0.688-0.436,1.267-1.011,1.917-1.513c0.633-0.523,1.183-1.134,1.823-1.677c-0.463,0.686-0.947,1.37-1.474,2.022
							c-0.581,0.599-1.108,1.27-1.781,1.781c-1.244,1.151-2.75,1.987-4.296,2.68c-1.565,0.668-3.252,1.035-4.938,1.142
							C277.869,282.587,276.159,282.405,274.585,281.852z"/>
					</g>
					<g style="opacity:0.51;">
						<path style="fill:#77391C;" d="M284.21,287.185c2.333-0.699,4.549-1.529,6.634-2.633c1.052-0.53,2.056-1.149,3.025-1.826
							c0.991-0.657,1.881-1.44,2.841-2.207c-0.641,1.036-1.418,2.017-2.357,2.819c-0.44,0.439-0.964,0.771-1.452,1.154
							c-0.524,0.327-1.043,0.668-1.595,0.947c-1.1,0.564-2.253,1.028-3.449,1.324C286.666,287.065,285.436,287.246,284.21,287.185z"
							/>
					</g>
					<g>
						<path style="fill:#FFBF94;" d="M215.53,268.185c-1.83,3,5.08,5,9.62,5.33c4.55,0.34,5.13,8,0,8.34c0,0,2.05,4-2.37,5.33
							c-1.83,0.55-3.39,0.65-4.58,0.56c0,0-0.01-0.01-0.02,0c-0.43-0.02-0.82-0.08-1.15-0.14c-0.97-0.17-1.5-0.42-1.5-0.42
							s0.02,0.09,0.02,0.24c0.06,0.86-0.19,3.71-5.85,3.43c-6.67-0.34-8.34-5-11.34-8.67c-3-3.67-9.33,2.33-33-11.33
							c-23.66-13.67-17.66-42.67-9-61.67c0,0,22.34,0.67,34.34,11.67c0,0-1.6,3.13-2.82,7.63c-1.53,5.57-2.5,13.24,0.82,19.7
							c6,11.67,19.66,13.89,21.66,12.28c2-1.61,7-4.28,12.42-2.79c4.33,1.19,8.58,2.84,6.25,5.84S217.36,265.185,215.53,268.185z"/>
						<path style="opacity:0.23;fill:#77391C;" d="M215.55,287.425c0.06,0.86-0.19,3.71-5.85,3.43c-6.67-0.34-8.34-5-11.34-8.67
							c-3-3.67-9.33,2.33-33-11.33c-23.66-13.67-17.66-42.67-9-61.67c0,0,22.34,0.67,34.34,11.67c0,0-1.6,3.13-2.82,7.63
							c-6.05-2.63-12.07-3.89-17.31,0.68c-2.12,1.85-3.2,4.63-3.8,7.38c-2.44,11.23,2.58,23.72,12.13,30.1
							c5.92,3.95,13.21,5.66,18.71,10.17c3.25,2.67,5.75,6.23,9.24,8.58C208.53,286.525,211.91,286.995,215.55,287.425z"/>
					</g>
					<path style="opacity:0.23;fill:#77391C;" d="M218.18,287.745c-0.43-0.02-0.82-0.08-1.15-0.14
						C217.41,287.645,217.8,287.695,218.18,287.745z"/>
					<path style="opacity:0.23;fill:#77391C;" d="M280.66,287.775c0.95-0.12,1.91-0.23,2.85-0.35
						C282.91,287.595,281.94,287.795,280.66,287.775z"/>
					<g>
						<path style="fill:#FFBF94;" d="M334.38,270.855c-23.67,13.66-30,7.66-33,11.33c-3,3.67-4.67,8.33-11.34,8.67
							c-5.87,0.29-5.92-2.78-5.84-3.51c0-0.1,0.01-0.16,0.01-0.16s-0.24,0.11-0.69,0.24h-0.01c-0.6,0.17-1.57,0.37-2.85,0.35
							c-1.04-0.01-2.29-0.17-3.7-0.59c-4.42-1.33-2.38-5.33-2.38-5.33c-5.12-0.34-4.54-8,0-8.34c4.55-0.33,11.46-2.33,9.63-5.33
							c-1.83-3-11.17-1.67-13.5-4.67c-2.33-3,1.92-4.65,6.25-5.84c5.42-1.49,10.42,1.18,12.42,2.79c2,1.61,15.66-0.61,21.66-12.28
							c3.37-6.55,2.32-14.36,0.75-19.95c-1.21-4.37-2.75-7.38-2.75-7.38c12-11,34.34-11.67,34.34-11.67
							C352.04,228.185,358.04,257.185,334.38,270.855z"/>
						<path style="opacity:0.23;fill:#77391C;" d="M334.38,270.855c-23.67,13.66-30,7.66-33,11.33c-3,3.67-4.67,8.33-11.34,8.67
							c-5.87,0.29-5.92-2.78-5.84-3.51c3.38-0.41,6.45-0.89,8.02-1.95c3.5-2.35,5.99-5.91,9.25-8.58
							c5.5-4.51,12.79-6.22,18.71-10.17c9.55-6.38,14.56-18.87,12.12-30.1c-0.59-2.75-1.67-5.53-3.79-7.38
							c-5.07-4.42-10.87-3.38-16.72-0.93c-1.21-4.37-2.75-7.38-2.75-7.38c12-11,34.34-11.67,34.34-11.67
							C352.04,228.185,358.04,257.185,334.38,270.855z"/>
					</g>
				</g>
				<g>
					<path style="fill:#91D5D7;" d="M351.699,207.518c-1.91,0.47-3.78,0.96-5.61,1.47c-0.24,0.07-0.48,0.13-0.72,0.2
						c-0.01,0-0.01,0-0.02,0c-22.47,6.27-38.81,14.66-38.81,14.66c-6.1-7.66-12.55-13.57-19.11-18.08
						c-29.11-19.99-60.34-12.19-71.9-6.04c-1,0.53-1.97,1.12-2.91,1.75c-12.31,8.24-18.92,23.71-18.92,23.71
						c-9.6-6.28-21.65-9.7-30.5-11.49c-1.68-0.34-3.25-0.62-4.65-0.86c-4.57-0.76-7.52-0.99-7.52-0.99c1-3,8-25.33,26-36.78
						c18-11.46,25.67-0.88,35.67,2.12s41.55,10.09,78.33-7.34C328.699,151.998,351.699,207.518,351.699,207.518z"/>
					<path style="fill:#BAFFFF;" d="M345.349,209.188c-22.47,6.27-38.81,14.66-38.81,14.66c-33.15-41.66-76.84-31.66-91.01-24.12
						c-14.17,7.54-21.83,25.46-21.83,25.46c-9.6-6.28-21.65-9.7-30.5-11.49c0,0,17.83-0.68,28.33,4.82c0,0,19-33,56-35.5
						s61,35.5,61,35.5S328.029,209.418,345.349,209.188z"/>
					<path style="opacity:0.2;fill:#262654;" d="M351.699,207.518c-1.91,0.47-3.78,0.96-5.61,1.47
						c-6.31-11.95-14.8-23.23-27.42-27.36c-1.2-0.4-2.5-0.73-3.74-0.43c-3.35,0.82-4.24,5.46-7.29,7.09
						c-2.22,1.19-5.18,0.52-7.2,2.03c-1.49,1.12-2.01,3.07-2.71,4.8c-1.98,4.82-5.74,8.19-10.3,10.65
						c-5.47,2.95-12.1,4.57-18.23,5.8c-5.53,1.1-11.11,2.22-16.74,2.13c-7.89-0.12-15.54-2.57-23.04-5
						c-5.72-1.85-11.52-3.73-16.54-7.04c-0.09-0.06-0.18-0.12-0.26-0.18c-4.9-3.29-9.01-8.18-10.06-13.99
						c-1.38,1.44-3.89,0.6-5.32-0.79c-1.43-1.39-2.47-3.27-4.27-4.14c-2.88-1.39-6.24,0.38-8.85,2.24
						c-10.38,7.39-19.12,17.05-25.57,28.04c-4.57-0.76-7.52-0.99-7.52-0.99c1-3,8-25.33,26-36.78c18-11.46,25.67-0.88,35.67,2.12
						s41.55,10.09,78.33-7.34C328.699,151.998,351.699,207.518,351.699,207.518z"/>
				</g>
			</g>
			<g>
				<g>
					<path style="fill:#5E2B18;" d="M202.051,169.518c0,0-5.355-13.667-9.355-28.333s9.333-40.333,56.667-40.333
						c47.333,0,53.667,33.667,53.667,38.333s-2.222,24.847-6.611,31.923C292.029,178.185,215.072,175.852,202.051,169.518z"/>
					<path style="opacity:0.46;fill:#421709;" d="M202.051,169.518c0,0-5.355-13.667-9.355-28.333s9.333-40.333,56.667-40.333
						c47.333,0,53.667,33.667,53.667,38.333s-2.222,24.847-6.611,31.923C292.029,178.185,215.072,175.852,202.051,169.518z"/>
				</g>
				<g>
					<g>
						<path style="fill:#FFBF94;" d="M306.029,177.768c-1.5,4.75-5.25,7-11,7.25c0,0-2.09,19.41-20.88,28.68
							c-5.89,2.91-13.42,4.82-23.05,4.82c-11.8,0-20.47-2.91-26.82-7.03c-15.37-9.96-17.25-26.97-17.25-26.97s-10.25,0.5-11.25-8
							s4-12,10.5-9s9.25-10.5,7.5-25c0,0,9.25-15.5,37.25-15.5s36.75,20.25,37.5,20.75s-2.75,15.25,1.5,19.5s4.75-2.5,10.25-1.75
							S307.529,173.018,306.029,177.768z"/>
						<path style="opacity:0.23;fill:#77391C;" d="M306.029,177.768c-1.5,4.75-5.25,7-11,7.25c0,0-2.09,19.41-20.88,28.68
							c9.66-8.43,14.86-21.79,13.31-34.53c-0.21-1.78-0.6-3.63-1.79-4.96c-0.92-1.02-2.24-1.62-3.18-2.63
							c-3.6-3.81,0.03-10.24-1.6-15.22c-6.14,1.19-12.87-2.59-15.06-8.46c-3.14,5.66-9.58,9.32-16.05,9.11
							c-6.47-0.21-12.66-4.28-15.42-10.14c-1.86,2.76-3.78,5.57-6.48,7.5c-2.71,1.94-6.4,2.83-9.4,1.39
							c1.62,5.78-2.63,11.39-4.2,17.18c-1.95,7.2,0.32,14.79,2.57,21.89c1.82,5.72,3.87,11.75,7.43,16.66
							c-15.37-9.96-17.25-26.97-17.25-26.97s-10.25,0.5-11.25-8s4-12,10.5-9s9.25-10.5,7.5-25c0,0,9.25-15.5,37.25-15.5
							s36.75,20.25,37.5,20.75s-2.75,15.25,1.5,19.5s4.75-2.5,10.25-1.75S307.529,173.018,306.029,177.768z"/>
						<g>
							<g>
								<path style="fill:#D3635D;" d="M203.02,178.96c-3.92,0.836-4.877-7.402-1.369-7.843
									C203.897,170.834,206.283,178.264,203.02,178.96z"/>
								<path style="fill:#D3635D;" d="M298.016,178.96c3.92,0.836,4.877-7.402,1.369-7.843
									C297.139,170.834,294.754,178.264,298.016,178.96z"/>
							</g>
						</g>
					</g>
					<g>
						<path style="fill:#D3635D;" d="M252.529,170.518c-2.049,0-3.762,12.088-4.313,16.452c-0.13,1.031,0.44,2.02,1.401,2.413
							c1.323,0.541,3.33,0.971,5.462,0.009c0.891-0.402,1.404-1.358,1.296-2.33C255.903,182.779,254.386,170.518,252.529,170.518z"
							/>
						<g style="opacity:0.87;">
							<g>
								<ellipse style="fill:#542513;" cx="225.154" cy="175.38" rx="2.375" ry="4.861"/>
								<ellipse style="fill:#542513;" cx="276.404" cy="175.38" rx="2.375" ry="4.861"/>
							</g>
						</g>
						<g style="opacity:0.84;">
							<ellipse style="fill:#D3635D;" cx="221.529" cy="186.393" rx="6" ry="2.125"/>
							<ellipse style="fill:#D3635D;" cx="282.404" cy="186.393" rx="6" ry="2.125"/>
						</g>
						<g>
							<g>
								<path style="fill:#77391C;" d="M272.79,153.74c0.014,0.202,0.042,0.414,0.088,0.632c0.161,0.762,0.869,1.279,1.644,1.214
									c1.468-0.124,4.186-0.132,6.438,1.109c0.793,0.437,1.83,0.191,2.183-0.641c0.019-0.045,0.037-0.091,0.055-0.138
									c0.238-0.642,0.008-1.364-0.541-1.773c-1.291-0.962-4.185-2.584-8.516-2.027C273.337,152.218,272.732,152.931,272.79,153.74
									z"/>
								<path style="fill:#77391C;" d="M230.403,153.74c-0.014,0.202-0.042,0.414-0.088,0.632c-0.161,0.762-0.869,1.279-1.644,1.214
									c-1.468-0.124-4.186-0.132-6.438,1.109c-0.793,0.437-1.83,0.191-2.183-0.641c-0.019-0.045-0.037-0.091-0.055-0.138
									c-0.238-0.642-0.008-1.364,0.541-1.773c1.291-0.962,4.185-2.584,8.516-2.027
									C229.856,152.218,230.461,152.931,230.403,153.74z"/>
							</g>
						</g>
						<path style="fill:#663236;" d="M270.999,200.938c0,0,0,0-0.01,0.01c-0.78,0.33-1.39,0.57-1.67,0.68
							c-3.3,1.31-6.23,2.24-9.51,2.69c-1.22,0.17-2.49,0.27-3.84,0.3c-1.14,0.02-2.28,0.05-3.42,0.07
							c-6.42,0.13-12.01-1.21-18.02-3.34c-4.52-1.6-8.5-4.66-7-6.33c1.51-1.67,5.62,5.07,24.78,5.16c4.83-0.02,8.71-0.47,11.82-1.09
							c3.69-0.75,6.32-1.75,8.22-2.6c2.86-1.27,4.06-2.22,4.74-1.47C279.009,197.148,273.899,199.698,270.999,200.938z"/>
						<path style="fill:#D3635D;" d="M272.349,196.488c-0.13,1.53-0.64,3.12-1.35,4.45c0,0,0,0-0.01,0.01
							c-0.78,0.33-1.39,0.57-1.67,0.68c-3.3,1.31-6.23,2.24-9.51,2.69c0.91-0.8,2.98-2.78,4.32-5.23c0.48-0.86,0.86-1.79,1.07-2.74
							c1-4.5,3-7.16,5.5-5C272.109,192.568,272.539,194.488,272.349,196.488z"/>
					</g>
				</g>
				<g>
					<path style="fill:#77391C;" d="M311.139,138.148c-0.56,0.69-1.12,1.31-1.69,1.88c-4.23,4.24-8.6,5.16-11.66,5.14
						c-2.47-0.02-4.09-0.65-4.09-0.65s-2.12,2.26-7.65,2.2c-0.84-0.01-1.75-0.07-2.76-0.2c-7.35-0.97-11.66-11.01-11.92-11.64
						c-0.01-0.02-0.01-0.03-0.01-0.03s-0.01,0.03-0.03,0.1c0,0-0.01,0.01-0.01,0.02c-0.42,1.43-5,15.59-18.29,17.03
						c-14,1.52-12.67-16.15-12.67-16.15s-3.66,9.67-16,13.34c-12.33,3.66-17-3-17-3s-1.9,2.08-4.9,3.32
						c-2.76,1.14-6.44,1.56-10.43-0.99c-0.43-0.28-0.83-0.57-1.19-0.88c-1.7-1.43-2.59-3.12-2.99-4.83
						c-0.12-0.58-0.2-1.16-0.23-1.74c-0.21-4.27,2.08-8.22,2.08-8.22s-10.67-1.66-9-16c1.66-14.33,16-20,16-20s-2.67-9,9.66-14
						c12.34-5,20-1,20-1s5.01-13,21.84-10.33c16.83,2.67,22.5,13,22.5,13s10.33-3.67,15.66,2c5.34,5.67,5.67,10.67,5.67,10.67
						s7.36-5.67,14.51,2c7.16,7.66,3.82,19.33,3.82,19.33S319.249,128.118,311.139,138.148z"/>
					<path style="opacity:0.22;fill:#FFC58B;" d="M293.699,144.518c0,0-2.12,2.26-7.65,2.2c-0.84-0.01-1.75-0.07-2.76-0.2
						c-7.35-0.97-11.66-11.01-11.92-11.64c-0.01-0.02-0.01-0.03-0.01-0.03s-0.01,0.03-0.03,0.1c0,0-0.01,0.01-0.01,0.02
						c-0.42,1.43-5,15.59-18.29,17.03c-14,1.52-12.67-16.15-12.67-16.15s-3.66,9.67-16,13.34c-12.33,3.66-17-3-17-3
						s-7,7.66-15.33,2.33c-0.43-0.28-0.83-0.57-1.19-0.88c-1.7-1.43-2.59-3.12-2.99-4.83c1.83,1.91,4.37,3.52,7.8,3.71
						c8.88,0.5,12.05-6,12.05-6s2.97,9.19,13.83,7s20.83-16.5,20.83-16.5s-0.51,17.05,10.14,16.84
						c10.64-0.21,17.55-19.34,17.55-19.34S277.949,149.008,293.699,144.518z"/>
					<path style="opacity:0.46;fill:#421709;" d="M311.139,138.148c-0.56,0.69-1.12,1.31-1.69,1.88c-4.23,4.24-8.6,5.16-11.66,5.14
						c3.39-5.49,2.55-13.39-2.16-17.87c5.24-2.22,6.24-10.25,2.27-14.31c-3.98-4.06-11.15-3.82-15.52-0.19
						c0.37-4.22-0.77-8.95-4.27-11.34c-3.49-2.39-9.46-0.78-10.07,3.42c0.84-5.25-2.47-10.85-7.47-12.65
						c-4.99-1.79-11.12,0.43-13.8,5.01c-7.14-5.37-16.3-7.97-25.2-7.18c-2.94,0.26-6.08,1.01-8,3.27c-1.92,2.25-1.74,6.37,0.94,7.6
						c-7.84-1.28-16.25,3.61-19.01,11.07c-0.91,2.44-1.21,5.33,0.19,7.53c2.2,3.49,7.17,3.53,11.28,3.17
						c-4.93,5.77-7.26,13.69-6.23,21.21c0.28,2.08,0.9,3.92,1.72,5.6c-2.76,1.14-6.44,1.56-10.43-0.99
						c-0.43-0.28-0.83-0.57-1.19-0.88c-1.7-1.43-2.59-3.12-2.99-4.83c-0.12-0.58-0.2-1.16-0.23-1.74c-0.21-4.27,2.08-8.22,2.08-8.22
						s-10.67-1.66-9-16c1.66-14.33,16-20,16-20s-2.67-9,9.66-14c12.34-5,20-1,20-1s5.01-13,21.84-10.33c16.83,2.67,22.5,13,22.5,13
						s10.33-3.67,15.66,2c5.34,5.67,5.67,10.67,5.67,10.67s7.36-5.67,14.51,2c7.16,7.66,3.82,19.33,3.82,19.33
						S319.249,128.118,311.139,138.148z"/>
					<g style="opacity:0.11;">
						<path style="fill:#FFC58B;" d="M229.691,123.518c4.688,3.699-6.87,19.263-13.266,14.631
							C210.029,133.518,223.353,118.518,229.691,123.518z"/>
						<path style="fill:#FFC58B;" d="M264.904,124.518c4.471,1.012-4.095,18-9.235,18S258.279,123.018,264.904,124.518z"/>
						<path style="fill:#FFC58B;" d="M284.21,128.518c3.203-4.544,12.66,6.469,9.49,10.484
							C290.529,143.018,281.39,132.518,284.21,128.518z"/>
					</g>
				</g>
			</g>
		</g>
		<g style="clip-path:url(#SVGID_00000115477409253047742830000006778504138589867698_);">
			<g>
				<path style="fill:#F18C2A;" d="M64.917,412.981c-0.213,1.517-0.604,5.291-0.041,9.715c0.074,0.578,0.614,0.975,1.183,0.85
					c3.055-0.673,12.229-2.801,18.199-5.336c0.803-0.341,0.793-1.482-0.014-1.812c-4.001-1.639-12.974-4.962-18.456-4.259
					C65.338,412.198,64.979,412.533,64.917,412.981z"/>
				<path style="fill:#F18C2A;" d="M61.039,398.091c1.362,1.889,4.298,5.816,6.674,7.988c0.428,0.391,1.096,0.32,1.442-0.145
					c1.554-2.091,5.616-7.681,7.759-11.813c0.385-0.743-0.284-1.593-1.099-1.402c-3.203,0.751-9.66,2.327-14.29,3.868
					C60.897,396.797,60.651,397.552,61.039,398.091z"/>
				<path style="fill:#F18C2A;" d="M73.741,392.738c2.285,2.758,7.255,8.694,10.093,11.603c0.465,0.477,1.255,0.361,1.567-0.228
					c1.243-2.346,3.976-7.708,4.705-10.802c0.132-0.561-0.243-1.111-0.813-1.195c-2.488-0.366-9.223-1.247-14.849-0.988
					C73.637,391.166,73.226,392.116,73.741,392.738z"/>
				<path style="fill:#F18C2A;" d="M83.633,380.061c1.633,2.879,5.23,9.155,7.888,13.297c0.368,0.573,1.191,0.602,1.604,0.061
					c1.925-2.525,6.601-8.773,8.336-12.101c0.323-0.619-0.08-1.363-0.775-1.429c-3.062-0.293-10.71-1.001-16.146-1.288
					C83.765,378.559,83.251,379.387,83.633,380.061z"/>
			</g>
			<g>
				<g>
					<path style="fill:#CAF783;" d="M162.529,390.765c-1.56,0.72-5.17,5.76-8.83,11.45c-3.9,6.12-7.87,13.02-9.42,16.2
						c-3,6.16-0.75,11.1-3.75,11.6s-3.5-2.25-6.5-4.25c-2.68-1.79-5.37-3.98-15.75-8.36c-1.22-0.51-2.55-1.06-4-1.64
						c-0.4-0.16-0.79-0.32-1.17-0.47c-12.9-5.21-18.36-8.11-24.58-8.53c-3.75-0.25-3.5,0-5.5-2c-1.4-1.4,2.96-10.04,7.51-18.69
						c1.94-3.7,3.92-7.41,5.49-10.56c5.25-10.5,13.5-19,15.25-18.75s9.75,6,15.5,10c2.7,1.88,6.74,3.1,11.01,4.49
						c4.8,1.56,9.9,3.33,13.74,6.51c5.39,4.46,11.46,5.19,14.53,5.99c1.07,0.28,1.77,0.56,1.97,1.01
						C168.779,386.515,165.779,389.265,162.529,390.765z"/>
					<path style="opacity:0.45;fill:#4CAF6F;" d="M162.529,390.768c-1.56,0.72-5.17,5.76-8.83,11.45
						c-12.88,4.02-27.74,8.76-40.59,13.08c-12.9-5.21-18.36-8.11-24.58-8.53c-3.75-0.25-3.5,0-5.5-2c-1.4-1.4,2.96-10.04,7.51-18.69
						c10.08-3.52,28.06-9.41,47.25-14.82c4.8,1.56,9.9,3.33,13.74,6.51c7.25,6,15.75,5.25,16.5,7S165.779,389.268,162.529,390.768z"
						/>
					<path style="opacity:0.3;fill:#105B44;" d="M166.059,383.755c-5.35,0.53-13.73-1-16.55-2.97c-1.63-1.14-2.8-2.83-4.39-4.03
						c-3.43-2.6-8.1-2.48-12.37-3.01c-7.26-0.91-14.21-4.12-19.62-9.05c-5.49,5.66-9.85,12.4-12.77,19.73
						c-2.5,6.3-3.76,14.02,0.3,19.46c1.84,2.48,4.54,4.14,7.15,5.79c3.57,2.26,7.18,4.85,10.47,7.73c-1.22-0.51-2.55-1.06-4-1.64
						c-0.4-0.16-0.79-0.32-1.17-0.47c-12.9-5.21-18.36-8.11-24.58-8.53c-3.75-0.25-3.5,0-5.5-2c-1.4-1.4,2.96-10.04,7.51-18.69
						c1.94-3.7,3.92-7.41,5.49-10.56c5.25-10.5,13.5-19,15.25-18.75s9.75,6,15.5,10c2.7,1.88,6.74,3.1,11.01,4.49
						c4.8,1.56,9.9,3.33,13.74,6.51C156.919,382.225,162.989,382.955,166.059,383.755z"/>
				</g>
				<g>
					<path style="fill:#293338;" d="M133.152,379.371c7.814,4.486,10.511,14.457,6.025,22.271
						c-4.486,7.814-14.457,10.511-22.271,6.025c-7.814-4.486-10.511-14.457-6.025-22.271
						C115.367,377.582,125.338,374.884,133.152,379.371z"/>
					<g>
						<g>
							<path style="fill:#CAF783;" d="M119.6,396.421c1.25,0.718,1.973,1.806,1.614,2.431c-0.359,0.625-1.663,0.55-2.913-0.168
								c-1.25-0.718-1.973-1.806-1.614-2.432C117.046,395.628,118.35,395.703,119.6,396.421z"/>
							<path style="fill:#CAF783;" d="M126.099,385.103c1.25,0.718,1.973,1.806,1.614,2.431c-0.359,0.625-1.663,0.55-2.913-0.168
								c-1.25-0.718-1.973-1.806-1.614-2.431C123.544,384.31,124.848,384.385,126.099,385.103z"/>
							<path style="fill:#CAF783;" d="M131.356,386.867c4.271,2.452,5.746,7.904,3.294,12.175
								c-2.452,4.271-7.904,5.746-12.175,3.294L131.356,386.867z"/>
						</g>
					</g>
				</g>
			</g>
		</g>
		<g style="clip-path:url(#SVGID_00000115477409253047742830000006778504138589867698_);">
			<g>
				<path style="fill:#CAF783;" d="M420.279,320.145v69.62c0,0-0.25,9.25-7,9.25c-0.74,0-1.4-0.09-1.98-0.25
					c-2.97-0.8-4.02-3.25-4.02-3.25s-2.75,7.5-9.37,7.5c-6.63,0-9.38-7.75-9.38-7.75s-1.75,3.75-6.75,3.75
					c-6.25,0-6.25-9.25-6.25-9.25v-69.62c0-12.36,10.02-22.38,22.38-22.38c0.6,0,1.19,0.02,1.77,0.08
					C411.199,298.735,420.279,308.385,420.279,320.145z"/>
				<path style="fill:#293338;" d="M418.279,320.768v69c-0.01,0.24-0.29,7.25-5,7.25c-3.14,0-4.15-2.26-4.16-2.29l-1.98-4.63
					l-1.74,4.73c-0.02,0.06-2.37,6.19-7.49,6.19c-5.16,0-7.47-6.35-7.5-6.42l-1.63-4.6l-2.06,4.42c-0.04,0.09-1.35,2.6-4.94,2.6
					c-4.2,0-4.25-7.18-4.25-7.25v-69c0-2.21,9.12-4,20.38-4C409.159,316.768,418.279,318.558,418.279,320.768z"/>
				<path style="fill:#F8E480;" d="M420.279,329.515v39.25c-0.66,0.38-1.33,0.73-2,1.05c-2.65,1.3-5.38,2.22-8.11,2.85
					c-13.74,3.13-27.59-1.21-32.64-3.1c-1.28-0.48-2-0.8-2-0.8v-39.25c0.67,0.28,1.33,0.55,2,0.79c13.18,4.93,26.04,3.61,34.16,1.79
					c2.85-0.63,5.11-1.33,6.59-1.84C419.569,329.815,420.279,329.515,420.279,329.515z"/>
				<path style="fill:#394549;" d="M418.279,320.768c0,2.21-9.12,4-20.37,4c-11.26,0-20.38-1.79-20.38-4s9.12-4,20.38-4
					C409.159,316.768,418.279,318.558,418.279,320.768z"/>
				<path style="opacity:0.3;fill:#105B44;" d="M420.279,320.145v69.62c0,0-0.25,9.25-7,9.25c-0.74,0-1.4-0.09-1.98-0.25
					c-0.04-0.72-0.08-1.44-0.12-2.16c-0.45-7.98-0.81-15.96-1.01-23.94c-0.17-6.06-0.24-12.11-0.2-18.15
					c0.05-7.18,1.31-14.86,1.72-22.42c0.15-2.82,0.19-5.63-0.01-8.39c-0.14-2.05-0.41-4.06-0.84-6.04c-1.12-5-3.31-9.72-7.31-13.94
					c-1.19-1.26-2.54-2.44-3.27-4.01c-0.28-0.6-0.46-1.23-0.58-1.87C411.199,298.735,420.279,308.385,420.279,320.145z"/>
			</g>
			<g>
				<circle style="fill:#56727C;" cx="397.404" cy="328.893" r="1.375"/>
				<circle style="fill:#56727C;" cx="385.898" cy="381.479" r="2.46"/>
				<circle style="fill:#56727C;" cx="399.217" cy="384.706" r="4.188"/>
				<circle style="fill:#56727C;" cx="408.779" cy="377.768" r="1.25"/>
				<circle style="fill:#56727C;" cx="411.779" cy="389.018" r="2"/>
			</g>
			<g>
				<rect x="393.279" y="293.518" style="fill:#CAF783;" width="9" height="6.375"/>
				<g>
					<g>
						<path style="fill:#A6C669;" d="M402.592,294.018h-9.375c-0.587,0-1.063-0.476-1.063-1.063l0,0
							c0-0.587,0.476-1.063,1.063-1.063h9.375c0.587,0,1.063,0.476,1.063,1.063l0,0
							C403.654,293.543,403.179,294.018,402.592,294.018z"/>
						<path style="fill:#A6C669;" d="M402.592,291.934h-9.375c-0.587,0-1.063-0.476-1.063-1.063l0,0
							c0-0.587,0.476-1.063,1.063-1.063h9.375c0.587,0,1.063,0.476,1.063,1.063l0,0
							C403.654,291.458,403.179,291.934,402.592,291.934z"/>
						<path style="fill:#A6C669;" d="M402.592,289.85h-9.375c-0.587,0-1.063-0.476-1.063-1.063l0,0c0-0.587,0.476-1.063,1.063-1.063
							h9.375c0.587,0,1.063,0.476,1.063,1.063l0,0C403.654,289.374,403.179,289.85,402.592,289.85z"/>
					</g>
				</g>
			</g>
		</g>
	</g>
</g>
</svg>
