<?xml version="1.0" standalone="no"?>
<!DOCTYPE svg PUBLIC "-//W3C//DTD SVG 20010904//EN"
 "http://www.w3.org/TR/2001/REC-SVG-20010904/DTD/svg10.dtd">
<svg version="1.0" xmlns="http://www.w3.org/2000/svg"
 width="1615.000000pt" height="1615.000000pt" viewBox="0 0 1615.000000 1615.000000"
 preserveAspectRatio="xMidYMid meet">

<g transform="translate(0.000000,1615.000000) scale(0.100000,-0.100000)"
fill="#000000" stroke="none">
<path d="M7524 14605 c-197 -43 -373 -166 -475 -332 -31 -52 -48 -71 -59 -67
-46 17 -136 36 -218 44 -261 28 -628 -81 -803 -238 -105 -94 -168 -238 -156
-361 l5 -58 -72 -35 c-39 -20 -108 -63 -153 -96 -258 -192 -395 -430 -418
-728 l-7 -92 -81 -12 c-45 -6 -95 -16 -112 -21 -30 -9 -50 -12 -160 -25 -33
-4 -64 -9 -70 -12 -5 -3 -16 -7 -25 -8 -8 -1 -40 -7 -70 -14 -30 -7 -62 -12
-70 -12 -8 0 -67 -9 -130 -20 -80 -15 -109 -23 -95 -29 14 -5 4 -7 -30 -8 -27
0 -70 -4 -95 -9 -50 -10 -176 -42 -200 -50 -8 -3 -22 -6 -30 -7 -14 -2 -38 -8
-163 -42 -32 -9 -60 -20 -63 -24 -2 -5 -11 -6 -19 -2 -9 3 -21 0 -29 -6 -7 -6
-16 -7 -20 -3 -4 4 -6 0 -4 -8 2 -12 -5 -14 -35 -12 -28 2 -37 0 -31 -9 4 -8
3 -9 -4 -5 -17 10 -217 -58 -326 -110 -16 -8 -35 -14 -41 -14 -7 0 -16 -7 -19
-16 -3 -8 -10 -13 -14 -10 -13 8 -107 -31 -105 -42 1 -6 -6 -8 -16 -5 -10 2
-25 -3 -34 -11 -8 -9 -21 -16 -27 -16 -6 0 -9 -4 -6 -9 4 -5 -3 -7 -13 -4 -13
3 -29 -4 -44 -19 -14 -14 -45 -34 -70 -46 -25 -12 -56 -32 -69 -44 -13 -13
-30 -24 -38 -26 -7 -2 -22 -13 -32 -24 -10 -12 -18 -17 -18 -12 0 5 -29 -22
-65 -60 -36 -38 -64 -75 -61 -82 3 -8 1 -16 -4 -19 -6 -4 -10 -1 -10 5 0 19
-22 -8 -93 -114 -55 -82 -64 -102 -54 -115 10 -12 9 -14 -5 -8 -12 4 -18 2
-18 -8 0 -8 -4 -15 -10 -15 -5 0 -10 -9 -10 -19 0 -11 -4 -21 -9 -23 -12 -4
-89 -181 -113 -257 -14 -45 -17 -66 -9 -69 6 -2 11 -8 11 -14 0 -7 -5 -7 -13
1 -19 15 -27 4 -27 -41 0 -22 -4 -37 -9 -34 -4 3 -6 -7 -4 -22 4 -21 2 -24 -6
-12 -9 12 -11 11 -12 -10 -1 -14 -1 -36 0 -50 1 -20 -1 -22 -9 -10 -8 12 -10
9 -11 -15 -1 -54 -9 -98 -19 -111 -6 -6 -10 -16 -9 -20 2 -5 -3 -28 -9 -50 -7
-23 -14 -61 -16 -85 -2 -24 -5 -44 -5 -44 -6 0 -15 -123 -14 -185 1 -43 -2
-67 -6 -55 -14 36 -29 -144 -34 -428 -2 -97 -6 -179 -8 -181 -2 -2 -46 -9 -97
-15 -387 -47 -875 -269 -1294 -588 -100 -77 -135 -109 -104 -97 26 10 19 -6
-20 -42 -20 -19 -32 -39 -28 -45 4 -7 1 -10 -7 -7 -18 6 -39 -15 -39 -39 0
-12 -3 -14 -8 -6 -9 15 -72 -61 -72 -86 0 -9 -9 -22 -20 -29 -11 -7 -20 -21
-20 -32 0 -11 -3 -20 -7 -20 -14 0 -33 -53 -34 -89 0 -29 -2 -32 -9 -16 l-9
20 -1 -20 c-1 -11 -4 -42 -6 -70 -2 -27 -8 -62 -13 -77 -6 -17 -6 -49 0 -85
17 -108 20 -131 10 -103 -5 14 -9 18 -10 10 -1 -21 24 -102 30 -96 3 3 6 -11
6 -31 1 -21 6 -39 12 -41 6 -2 11 -13 11 -23 0 -12 4 -17 11 -13 8 4 9 0 4
-15 -4 -13 -2 -21 5 -21 6 0 10 -6 8 -12 -1 -7 6 -31 16 -53 10 -22 26 -58 36
-80 24 -57 39 -88 49 -105 9 -16 22 -46 42 -100 7 -19 16 -37 19 -40 3 -3 12
-24 20 -48 9 -29 16 -38 22 -30 5 9 8 4 8 -14 0 -16 18 -65 40 -110 22 -46 40
-89 40 -96 0 -8 5 -10 12 -6 8 5 9 2 5 -9 -3 -10 -2 -17 3 -17 5 0 10 -10 12
-22 2 -13 8 -22 13 -21 6 1 11 -12 11 -29 1 -17 6 -33 11 -37 6 -3 16 -23 22
-43 7 -21 17 -38 22 -38 5 0 9 -7 9 -16 0 -8 5 -12 11 -8 7 4 9 0 5 -14 -4
-12 -1 -26 9 -35 8 -9 15 -20 15 -25 0 -5 23 -55 50 -110 28 -55 50 -106 50
-112 0 -6 4 -8 10 -5 5 3 7 0 4 -8 -3 -8 2 -22 12 -31 10 -10 13 -21 8 -26 -5
-5 -79 -20 -164 -34 -85 -14 -302 -50 -481 -80 -180 -31 -329 -56 -333 -56 -3
0 -6 -1485 -6 -3300 l0 -3300 8075 0 8075 0 -2 3287 -3 3288 -60 11 c-495 94
-671 126 -1070 194 -126 22 -231 40 -233 40 -1 0 13 29 33 64 19 35 35 71 35
80 0 10 16 42 35 72 19 30 35 57 35 60 0 6 62 138 92 197 11 21 18 47 15 58
-4 14 -1 19 7 16 15 -6 40 39 31 54 -4 5 -2 9 2 9 12 0 53 86 53 110 0 11 4
20 9 20 5 0 13 10 17 23 4 12 22 56 41 97 59 129 63 138 63 145 0 7 49 112 82
177 10 21 18 39 16 40 -1 2 10 29 25 60 16 32 30 68 31 80 2 13 6 30 9 38 31
81 34 312 4 369 -9 19 -17 47 -17 62 0 35 -72 178 -111 220 -16 17 -29 34 -29
37 0 14 -33 40 -45 36 -8 -3 -12 2 -12 13 1 11 -10 24 -28 33 -16 8 -31 18
-32 23 -2 4 -6 7 -9 6 -3 0 -17 15 -32 34 -37 46 -115 109 -257 204 -454 306
-873 463 -1300 490 -78 4 -105 9 -105 20 0 7 -5 13 -11 13 -8 0 -7 5 1 15 21
25 5 433 -24 640 -3 17 -7 57 -10 90 -4 33 -11 78 -16 100 -6 22 -13 54 -15
70 -20 133 -73 345 -87 345 -4 0 -8 13 -8 28 0 28 -27 119 -51 172 -7 14 -16
36 -22 50 -9 25 -14 35 -34 75 -5 11 -25 52 -44 90 -19 39 -37 72 -41 73 -5 2
-8 8 -8 13 0 5 -28 51 -61 102 -68 102 -222 261 -309 318 -80 53 -219 133
-265 153 -68 30 -109 48 -136 62 -69 35 -335 125 -343 116 -3 -3 -15 3 -26 13
-14 13 -34 17 -74 16 -32 0 -58 4 -62 11 -4 7 -3 8 4 4 7 -4 12 -3 12 2 0 9
-71 34 -87 31 -4 -1 -20 3 -35 9 -15 6 -35 9 -45 5 -10 -4 -14 -2 -9 5 4 6 -1
10 -11 10 -10 -1 -43 6 -73 16 -30 9 -57 16 -60 16 -3 1 -22 5 -43 11 -20 5
-41 7 -46 4 -5 -3 -11 0 -13 6 -2 6 -23 12 -46 13 -23 0 -42 3 -42 6 0 3 -17
4 -37 2 -30 -3 -35 -1 -23 8 12 9 10 10 -12 6 -32 -7 -80 2 -73 14 3 4 -21 11
-53 15 -31 4 -83 14 -115 22 -32 8 -61 12 -64 9 -4 -3 -12 -1 -19 5 -7 5 -114
27 -239 47 l-227 37 -33 45 -34 46 16 99 c17 116 12 274 -12 375 -9 36 -34
103 -56 149 -54 110 -162 222 -264 272 -66 32 -75 34 -175 34 -97 -1 -110 -3
-174 -33 -38 -18 -70 -31 -71 -30 0 2 -6 26 -13 53 -28 110 -105 244 -200 347
-126 136 -339 177 -582 113 l-55 -15 -24 32 c-45 60 -205 213 -264 251 -232
153 -537 248 -793 246 -66 0 -147 -7 -180 -14z m-2991 -2456 c29 -7 63 -25 84
-45 33 -32 35 -37 31 -83 -6 -60 -70 -166 -127 -209 -75 -57 -185 -102 -291
-118 -25 -4 -52 -10 -60 -15 -13 -6 -93 -20 -200 -35 -198 -27 -455 -86 -564
-130 -77 -31 -223 -115 -303 -176 -96 -72 -138 -98 -200 -124 -73 -30 -126
-31 -151 -3 -30 31 -33 68 -13 166 18 84 43 143 94 218 38 57 179 186 260 239
97 62 254 140 317 156 25 7 61 18 80 25 19 8 65 19 103 25 37 7 70 16 73 21 3
5 17 9 32 9 16 0 55 7 87 16 65 16 323 63 420 75 81 10 269 4 328 -12z m6978
-4 c63 -8 193 -31 289 -51 157 -32 211 -45 315 -74 17 -5 57 -16 90 -25 82
-22 254 -107 344 -169 123 -85 103 -67 228 -203 69 -75 125 -217 127 -324 2
-105 -24 -122 -149 -96 -42 8 -141 66 -240 139 -16 13 -53 39 -81 60 -102 76
-290 152 -454 183 -41 8 -109 22 -150 30 -41 8 -120 22 -175 30 -238 36 -349
63 -445 109 -83 38 -111 61 -165 131 -100 132 -81 234 50 266 54 13 299 9 416
-6z m-2675 -127 c34 -77 131 -212 197 -276 103 -98 217 -142 372 -142 56 0 62
-2 78 -29 16 -27 16 -39 1 -187 -20 -194 -15 -422 11 -502 28 -91 120 -173
178 -158 13 3 54 28 92 56 37 27 85 55 106 62 43 13 39 2 84 189 21 89 85 440
85 469 0 16 51 -8 731 -343 595 -293 898 -426 1169 -514 166 -53 194 -57 410
-58 203 0 206 0 261 -28 74 -36 145 -113 198 -215 53 -104 52 -115 -30 -240
-145 -223 -224 -430 -270 -717 -115 -715 -245 -1143 -468 -1543 -42 -75 -50
-98 -55 -162 -34 -374 -202 -703 -469 -918 -116 -93 -204 -146 -432 -260 -170
-85 -235 -112 -390 -163 -163 -54 -265 -76 -449 -94 -90 -9 -170 -22 -189 -31
-20 -10 -67 -62 -127 -142 -147 -195 -230 -240 -428 -230 -114 5 -157 28 -174
94 -9 34 -16 43 -28 38 -32 -14 -169 -16 -222 -4 -125 30 -164 73 -155 171 l5
57 -32 6 c-89 17 -133 139 -83 236 32 64 61 80 167 96 111 17 170 32 170 44 0
14 -80 75 -140 106 -49 26 -65 29 -150 29 -52 0 -110 -3 -127 -7 l-33 -7 0 44
0 45 50 0 c63 0 106 21 112 55 5 22 0 29 -31 45 -21 10 -43 26 -50 34 -11 13
-41 16 -186 16 -150 0 -176 -2 -193 -17 -52 -44 -24 -123 42 -123 19 0 48 -3
65 -6 l32 -7 -3 -60 c-3 -70 5 -65 -148 -87 -380 -53 -896 -51 -1233 5 -48 8
-89 15 -92 15 -3 0 -5 29 -5 65 l0 65 50 0 c63 0 110 22 111 53 3 61 -14 91
-58 100 -18 3 -34 -4 -58 -25 -43 -37 -100 -56 -232 -76 -58 -10 -108 -22
-110 -28 -4 -13 41 -24 93 -24 34 0 34 0 34 -46 0 -45 -1 -46 -27 -40 -69 15
-184 18 -229 7 -38 -10 -49 -10 -55 1 -13 19 -11 -29 1 -52 24 -46 169 -100
329 -124 94 -14 108 -19 139 -48 19 -18 38 -44 43 -57 16 -39 13 -125 -5 -160
-18 -33 -69 -71 -97 -71 -14 0 -17 -11 -15 -69 1 -64 -1 -72 -28 -100 -16 -16
-50 -37 -75 -46 -58 -21 -193 -30 -248 -17 l-43 10 -10 -39 c-20 -75 -87 -103
-229 -97 -82 3 -106 8 -161 34 -87 42 -134 88 -252 245 -35 47 -69 82 -91 92
-21 10 -96 23 -188 32 -84 9 -195 25 -247 36 -189 41 -431 134 -660 254 -240
127 -347 199 -467 320 -38 38 -76 70 -83 70 -8 0 -19 16 -26 36 -7 19 -26 55
-43 79 -81 120 -142 267 -178 425 -26 118 -45 270 -45 358 0 48 -10 74 -79
213 -300 602 -441 1142 -441 1694 0 116 -4 160 -21 220 -27 99 -77 210 -145
326 -36 62 -58 111 -63 145 -10 63 7 168 43 264 90 236 189 347 386 430 190
81 392 111 1079 160 575 41 655 55 1073 185 15 5 29 5 31 2 3 -4 50 -144 106
-312 57 -167 106 -312 111 -321 6 -11 28 -18 72 -22 35 -3 93 -17 131 -31 77
-30 107 -32 146 -11 107 55 177 248 187 520 8 201 -10 180 146 180 114 1 148
5 233 29 271 75 501 242 627 456 22 38 39 58 42 49 2 -8 7 -54 10 -104 14
-225 106 -396 253 -471 55 -28 64 -29 188 -29 114 1 140 4 210 28 108 36 195
88 283 171 120 114 220 264 277 419 10 26 21 47 25 47 4 0 15 -19 26 -42z
m6354 -3058 c0 -5 -2 -10 -4 -10 -3 0 -8 5 -11 10 -3 6 -1 10 4 10 6 0 11 -4
11 -10z m-13765 -56 c95 -24 139 -37 150 -44 6 -4 37 -17 70 -30 33 -13 62
-26 65 -29 3 -3 40 -24 83 -46 42 -21 77 -43 77 -47 0 -4 6 -8 14 -8 8 0 16
-3 18 -7 2 -5 21 -20 42 -35 68 -47 236 -209 314 -303 100 -121 239 -325 326
-478 13 -23 53 -93 90 -155 36 -62 69 -124 72 -137 3 -14 9 -25 13 -25 11 0
246 -474 306 -620 140 -336 195 -536 195 -703 0 -86 -7 -114 -37 -155 -66 -88
-188 -80 -254 17 -29 44 -108 220 -109 242 0 9 -11 51 -25 93 -14 42 -25 85
-25 96 0 10 -4 22 -10 25 -5 3 -10 16 -10 28 0 12 -33 89 -74 172 -41 82 -109
222 -151 310 -43 88 -126 260 -186 383 -60 123 -109 225 -109 227 0 2 -24 49
-54 104 -30 55 -69 126 -86 158 -29 55 -72 123 -131 210 -72 105 -232 223
-392 291 -187 78 -302 108 -682 176 -104 19 -113 23 -131 59 -24 45 -3 107 49
152 22 19 47 35 54 35 7 0 13 4 13 8 0 12 95 44 159 53 78 11 284 1 356 -17z
m13240 16 c128 -17 248 -83 279 -152 22 -52 20 -85 -7 -112 -22 -22 -100 -46
-149 -46 -12 0 -35 -4 -52 -9 -17 -5 -92 -22 -166 -36 -188 -37 -386 -97 -484
-147 -84 -43 -207 -129 -258 -181 -93 -93 -163 -197 -264 -390 -123 -236 -384
-770 -384 -787 0 -6 -4 -10 -10 -10 -5 0 -10 -5 -10 -11 0 -5 -28 -67 -61
-137 -34 -70 -81 -167 -105 -217 -24 -49 -52 -121 -63 -160 -10 -38 -29 -106
-41 -150 -82 -296 -182 -401 -323 -335 -93 44 -113 189 -58 415 36 145 91 307
147 432 8 17 14 34 14 37 0 3 14 36 31 73 17 37 37 82 44 98 18 41 197 400
227 455 55 102 81 146 94 161 8 8 14 19 14 22 0 4 27 54 60 111 33 57 60 109
60 114 0 5 9 17 20 27 11 10 20 23 20 29 0 6 25 44 55 84 30 40 55 76 55 79 0
3 21 33 46 67 303 403 641 625 1024 676 81 10 166 11 245 0z m-13636 -2210
c11 -24 11 -24 -3 -6 -9 11 -16 24 -16 30 0 12 5 7 19 -24z m75 -146 c3 -8 2
-12 -4 -9 -6 3 -10 10 -10 16 0 14 7 11 14 -7z m2873 -92 c-48 -128 -75 -218
-108 -355 l-34 -139 -49 7 c-27 3 -74 16 -104 28 -51 21 -59 28 -92 90 -28 51
-39 64 -48 55 -7 -7 -12 -19 -12 -28 0 -9 -4 -20 -9 -25 -5 -6 -26 -63 -46
-128 -32 -100 -47 -130 -51 -99 0 4 -6 21 -13 37 -18 43 -43 220 -39 274 4 48
54 163 86 196 101 106 176 140 343 155 166 15 194 16 197 7 2 -4 -8 -37 -21
-75z m7968 58 c192 -33 339 -198 339 -380 -1 -100 -14 -206 -25 -189 -5 8 -9
23 -9 33 0 34 -42 176 -51 176 -6 0 -19 -21 -30 -47 -37 -87 -82 -116 -209
-137 l-35 -6 -34 138 c-19 75 -56 201 -82 278 -27 78 -49 145 -49 149 0 7 104
-1 185 -15z m-10797 -65 c-3 -3 -9 2 -12 12 -6 14 -5 15 5 6 7 -7 10 -15 7
-18z m30 -50 c-3 -3 -9 2 -12 12 -6 14 -5 15 5 6 7 -7 10 -15 7 -18z m36 -51
c3 -8 2 -12 -4 -9 -6 3 -10 10 -10 16 0 14 7 11 14 -7z m26 -59 c0 -5 -5 -3
-10 5 -5 8 -10 20 -10 25 0 6 5 3 10 -5 5 -8 10 -19 10 -25z m3440 -254 c47
-10 146 -37 220 -59 74 -22 185 -54 245 -72 304 -88 290 -77 290 -248 0 -161
16 -188 208 -357 117 -104 155 -170 262 -454 134 -359 196 -494 307 -671 69
-109 120 -172 229 -285 64 -66 88 -101 138 -200 33 -66 89 -167 125 -225 l64
-105 -21 -21 c-12 -12 -78 -61 -147 -109 -69 -48 -127 -88 -129 -90 -2 -2 19
-28 46 -57 94 -101 290 -377 357 -502 30 -56 32 -82 11 -132 -17 -42 -376
-404 -545 -551 -239 -207 -618 -501 -872 -677 -140 -96 -198 -100 -282 -20
-91 87 -116 198 -73 321 52 149 178 297 495 577 194 173 247 227 257 267 7 30
-41 111 -137 233 l-67 85 -83 -35 c-207 -90 -496 -193 -640 -229 l-68 -17 -25
29 c-58 64 -152 219 -235 388 -82 166 -214 473 -238 555 -6 19 -27 82 -47 140
-20 58 -45 137 -56 175 -11 39 -29 104 -40 145 -26 94 -63 257 -94 423 -110
575 -110 1222 1 1562 46 142 89 195 186 228 67 22 232 16 358 -12z m6744 15
c74 -23 123 -60 152 -117 59 -117 94 -271 114 -494 14 -153 14 -554 0 -710
-47 -556 -224 -1219 -465 -1749 -74 -164 -103 -222 -142 -291 -69 -120 -147
-237 -176 -264 l-26 -23 -113 32 c-164 47 -352 114 -520 185 l-147 62 -24 -26
c-39 -42 -147 -191 -169 -234 -12 -24 -17 -49 -14 -63 7 -27 117 -142 221
-230 184 -156 332 -300 411 -400 162 -207 185 -373 68 -503 -56 -62 -89 -81
-144 -81 -52 0 -54 1 -240 133 -432 308 -815 624 -1104 913 -224 223 -260 276
-242 348 16 64 248 400 385 557 l40 45 -67 45 c-50 33 -195 137 -231 165 -2 2
17 36 42 76 55 89 71 117 149 266 49 95 76 134 143 203 214 222 342 450 517
919 127 341 138 358 366 574 105 100 117 126 118 261 0 61 1 117 2 126 4 31
44 59 114 79 40 12 156 46 258 76 432 130 600 157 724 120z m2624 -88 c28 -6
53 -16 54 -22 0 -6 2 -58 3 -116 2 -108 -5 -140 -30 -140 -17 0 -16 2 -19 -60
-2 -25 1 -51 7 -57 5 -7 7 -19 4 -27 -4 -10 17 -21 78 -41 277 -90 491 -311
582 -602 l28 -88 0 -1515 c0 -1402 -1 -1519 -17 -1570 -28 -88 -76 -160 -132
-195 -44 -27 -58 -30 -130 -30 -93 0 -127 14 -192 76 l-40 40 -52 -80 c-57
-87 -112 -139 -188 -173 -39 -18 -67 -23 -139 -23 -100 0 -140 15 -224 83 -37
30 -131 157 -143 194 -3 7 -23 -7 -47 -31 -54 -54 -117 -82 -196 -89 -132 -10
-207 49 -263 207 -15 42 -17 172 -19 1359 -2 721 -7 1312 -12 1312 -4 0 -8 86
-9 190 0 131 2 188 10 184 7 -4 8 4 3 24 -3 18 -2 33 4 37 6 3 11 21 11 39 0
17 4 36 8 41 8 9 31 80 32 98 0 11 52 109 71 135 10 12 15 32 12 45 -3 16 -2
18 5 8 12 -16 27 3 16 21 -4 6 -3 8 3 5 6 -4 25 10 43 31 56 67 80 92 85 92
12 0 54 44 49 52 -3 5 -2 8 3 7 22 -4 34 2 27 14 -4 6 -3 9 1 5 5 -5 27 3 49
16 91 53 116 65 155 76 23 6 41 15 41 21 0 6 5 7 11 4 5 -4 23 -1 40 5 23 10
29 19 30 44 1 17 2 46 4 65 2 25 -3 40 -20 57 -23 23 -27 56 -11 82 4 7 4 18
-1 25 -13 20 -13 41 0 49 9 6 9 12 0 28 -7 11 -13 26 -13 35 0 21 49 50 78 46
13 -1 22 1 18 7 -8 14 268 14 332 0z m-12500 -203 c-3 -3 -9 2 -12 12 -6 14
-5 15 5 6 7 -7 10 -15 7 -18z m132 -185 c0 -5 -2 -10 -4 -10 -3 0 -8 5 -11 10
-3 6 -1 10 4 10 6 0 11 -4 11 -10z m11815 -78 c-3 -3 -11 0 -18 7 -9 10 -8 11
6 5 10 -3 15 -9 12 -12z m-11661 -148 c5 -14 4 -15 -9 -4 -17 14 -19 20 -6 20
5 0 12 -7 15 -16z m36 -54 c6 -11 8 -20 6 -20 -3 0 -10 9 -16 20 -6 11 -8 20
-6 20 3 0 10 -9 16 -20z m5970 -30 c6 -11 7 -20 2 -20 -6 0 -12 9 -15 20 -3
11 -3 20 -1 20 2 0 8 -9 14 -20z m-5912 -55 c-3 -3 -9 2 -12 12 -6 14 -5 15 5
6 7 -7 10 -15 7 -18z m6040 -120 c-3 -3 -9 2 -12 12 -6 14 -5 15 5 6 7 -7 10
-15 7 -18z m252 -15 c0 -5 -2 -10 -4 -10 -3 0 -8 5 -11 10 -3 6 -1 10 4 10 6
0 11 -4 11 -10z m-211 -34 c-3 -3 -11 5 -18 17 -13 21 -12 21 5 5 10 -10 16
-20 13 -22z m-5848 -73 c13 -16 12 -17 -3 -4 -17 13 -22 21 -14 21 2 0 10 -8
17 -17z m6210 -100 c13 -16 12 -17 -3 -4 -10 7 -18 15 -18 17 0 8 8 3 21 -13z
m36 -50 c1 -19 -1 -22 -8 -12 -11 17 -12 39 -1 39 4 0 8 -12 9 -27z m-6104
-36 c57 -61 62 -79 7 -22 -19 19 -30 35 -26 35 4 0 13 -6 19 -13z m6178 -110
c-10 -9 -11 -8 -5 6 3 10 9 15 12 12 3 -3 0 -11 -7 -18z m-5940 -114 c13 -16
12 -17 -3 -4 -10 7 -18 15 -18 17 0 8 8 3 21 -13z m133 -102 c-2 -3 -12 3 -22
13 -16 17 -16 18 5 5 12 -7 20 -15 17 -18z m340 -176 c27 -14 56 -25 64 -25 7
0 46 -9 85 -21 129 -37 171 -47 247 -59 41 -7 80 -16 85 -20 6 -5 38 -14 73
-20 34 -7 62 -15 62 -19 -1 -39 -103 -520 -115 -538 -33 -50 -71 -63 -188 -63
-133 0 -167 13 -196 73 -10 23 -22 56 -25 72 -5 25 -104 521 -122 607 -3 15
-13 29 -22 31 -9 3 -12 5 -7 6 6 0 32 -10 59 -24z m9361 -401 c-32 -153 -64
-289 -72 -302 -31 -49 -69 -62 -186 -62 -119 0 -163 13 -192 56 -8 13 -36 128
-61 255 -37 190 -43 234 -32 244 7 7 65 20 128 30 63 9 120 21 125 25 6 4 42
13 80 19 39 6 113 19 165 29 89 18 95 18 98 2 2 -9 -22 -143 -53 -296z m-3975
219 c-11 -17 -11 -17 -6 0 3 10 6 24 7 30 0 9 2 9 5 0 3 -7 0 -20 -6 -30z
m180 -173 c0 -5 -4 -10 -10 -10 -5 0 -10 5 -10 10 0 6 5 10 10 10 6 0 10 -4
10 -10z m-6119 -760 c46 -24 243 -155 462 -307 170 -117 206 -136 392 -200 72
-24 144 -51 162 -59 17 -7 36 -14 42 -14 6 0 19 -4 29 -10 9 -5 46 -19 82 -31
141 -46 287 -126 420 -229 54 -43 139 -90 160 -90 10 0 20 -4 22 -8 5 -12 178
-66 293 -92 128 -28 143 -35 157 -64 25 -55 -61 -156 -189 -221 -68 -36 -87
-52 -146 -125 -117 -147 -323 -466 -502 -779 -147 -258 -165 -306 -190 -509
-18 -146 -30 -166 -104 -170 l-52 -3 -77 74 c-173 165 -362 271 -872 486 -146
62 -284 121 -307 132 -24 10 -45 19 -48 19 -3 0 -65 25 -137 56 -240 103 -423
157 -568 169 -131 10 -148 15 -185 54 -20 20 -35 46 -35 59 0 14 -19 44 -49
75 -26 29 -85 95 -130 147 -45 52 -86 95 -91 95 -5 0 -42 -52 -82 -115 -109
-170 -207 -300 -227 -300 -36 0 -301 308 -301 350 0 10 6 23 13 29 14 11 244
79 414 122 l91 23 -5 33 c-5 29 -2 34 23 44 32 12 201 7 408 -13 l119 -11 18
24 c10 13 23 38 29 55 10 28 5 40 -60 148 -38 64 -70 119 -70 121 0 2 -16 30
-35 62 -37 61 -43 94 -22 111 9 8 67 7 202 -3 105 -8 193 -15 196 -15 3 0 32
51 64 113 175 339 382 620 549 743 66 50 81 52 137 24z m-1556 -2229 c188 -47
410 -126 435 -156 32 -38 -18 -64 -285 -144 -252 -77 -464 -127 -483 -114 -26
16 -34 85 -29 257 4 154 5 161 28 179 21 17 35 19 119 14 52 -4 149 -20 215
-36z"/>
<path d="M6921 11375 c-67 -19 -149 -63 -162 -87 -18 -33 -7 -72 24 -86 25
-12 34 -11 75 6 59 25 148 42 223 42 48 0 60 4 73 22 20 28 20 67 0 93 -12 17
-28 20 -97 22 -49 2 -103 -3 -136 -12z"/>
<path d="M8883 11364 c-20 -20 -24 -31 -19 -57 11 -53 27 -61 123 -64 59 -1
108 -9 148 -23 97 -35 109 -35 133 -6 35 45 16 84 -62 123 -72 37 -140 53
-224 53 -65 0 -76 -3 -99 -26z"/>
<path d="M6918 10625 c-76 -75 -64 -320 16 -357 66 -30 116 49 116 183 0 93
-21 154 -61 183 -32 22 -42 20 -71 -9z"/>
<path d="M8965 10624 c-54 -58 -66 -217 -24 -301 29 -57 49 -71 85 -58 42 15
68 76 73 169 4 91 -9 142 -45 186 -32 37 -57 38 -89 4z"/>
<path d="M5997 10580 c3 -11 0 -27 -7 -35 -7 -9 -10 -18 -7 -21 8 -9 39 55 32
66 -11 18 -23 11 -18 -10z"/>
<path d="M8041 10578 c0 -15 6 -34 15 -42 23 -23 29 -19 11 7 -8 13 -17 32
-20 42 -4 15 -5 14 -6 -7z"/>
<path d="M8010 10524 c0 -15 3 -23 8 -18 4 5 10 11 13 14 4 3 1 11 -7 18 -12
11 -14 8 -14 -14z"/>
<path d="M9862 10495 c0 -16 2 -22 5 -12 2 9 2 23 0 30 -3 6 -5 -1 -5 -18z"/>
<path d="M9833 10500 c3 -8 7 -25 11 -37 5 -14 3 -23 -3 -23 -14 0 -14 -27 -1
-35 18 -11 22 41 6 76 -9 19 -15 27 -13 19z"/>
<path d="M8021 10480 c-1 -8 -4 -26 -7 -40 -5 -22 -4 -23 6 -7 6 10 9 28 7 40
-2 12 -5 15 -6 7z"/>
<path d="M6111 10454 c0 -11 3 -14 6 -6 3 7 2 16 -1 19 -3 4 -6 -2 -5 -13z"/>
<path d="M8100 10424 c0 -8 5 -12 10 -9 6 4 8 11 5 16 -9 14 -15 11 -15 -7z"/>
<path d="M6121 10404 c0 -11 3 -14 6 -6 3 7 2 16 -1 19 -3 4 -6 -2 -5 -13z"/>
<path d="M9861 10394 c0 -11 3 -14 6 -6 3 7 2 16 -1 19 -3 4 -6 -2 -5 -13z"/>
<path d="M9941 10394 c0 -11 3 -14 6 -6 3 7 2 16 -1 19 -3 4 -6 -2 -5 -13z"/>
<path d="M8105 10347 c-4 -10 -5 -21 -1 -24 10 -10 18 4 13 24 -4 17 -4 17
-12 0z"/>
<path d="M9878 10343 c7 -3 16 -2 19 1 4 3 -2 6 -13 5 -11 0 -14 -3 -6 -6z"/>
<path d="M8132 10310 c0 -19 2 -27 5 -17 2 9 2 25 0 35 -3 9 -5 1 -5 -18z"/>
<path d="M8112 10220 c-9 -14 -9 -20 -1 -20 7 0 9 -11 6 -30 -4 -16 -3 -30 2
-30 13 0 19 35 12 69 -6 30 -7 30 -19 11z"/>
<path d="M7938 10130 c-3 -17 -1 -33 4 -36 4 -3 8 11 8 30 0 44 -6 47 -12 6z"/>
<path d="M7906 10045 c-3 -9 -6 -26 -5 -38 1 -14 4 -9 9 13 9 37 7 52 -4 25z"/>
<path d="M7932 10025 c0 -16 2 -22 5 -12 2 9 2 23 0 30 -3 6 -5 -1 -5 -18z"/>
<path d="M7936 9940 c12 -12 29 -20 39 -18 13 2 6 8 -21 21 l-39 18 21 -21z"/>
<path d="M7968 9953 c6 -2 18 -2 25 0 6 3 1 5 -13 5 -14 0 -19 -2 -12 -5z"/>
<path d="M8110 9950 c13 -9 13 -11 0 -19 -8 -6 -11 -13 -8 -16 4 -4 16 0 28 8
22 15 22 15 2 26 -26 14 -42 14 -22 1z"/>
<path d="M8145 9910 c-3 -6 1 -7 9 -4 18 7 21 14 7 14 -6 0 -13 -4 -16 -10z"/>
<path d="M8760 9785 c1 -26 2 -28 11 -12 8 14 8 22 0 30 -8 8 -11 3 -11 -18z"/>
<path d="M7050 9659 c-39 -72 94 -177 325 -258 106 -38 288 -84 400 -103 87
-14 484 -18 548 -5 43 9 146 106 178 169 23 46 30 44 -122 24 -247 -34 -513
-29 -764 14 -144 25 -275 67 -415 131 -59 27 -114 49 -123 49 -9 0 -21 -9 -27
-21z"/>
<path d="M8925 9649 c-76 -34 -95 -51 -95 -86 0 -13 -4 -23 -10 -23 -5 0 -7
-6 -4 -13 2 -7 -2 -30 -11 -50 -14 -35 -14 -37 3 -37 28 0 174 87 210 125 34
36 42 81 20 103 -18 18 -36 15 -113 -19z"/>
<path d="M8571 9574 c0 -11 3 -14 6 -6 3 7 2 16 -1 19 -3 4 -6 -2 -5 -13z"/>
<path d="M8772 9540 c-7 -11 -12 -29 -12 -40 0 -11 -7 -20 -15 -20 -8 0 -15
-4 -15 -10 0 -5 -8 -10 -17 -10 -12 0 -14 -3 -6 -11 13 -13 69 -3 79 13 5 7
-1 9 -16 5 -17 -4 -20 -3 -11 6 6 6 11 20 11 32 0 12 5 26 12 33 6 6 10 14 7
16 -3 3 -10 -4 -17 -14z"/>
<path d="M8566 9504 c-4 -9 -4 -19 -1 -22 2 -3 7 3 11 12 4 9 4 19 1 22 -2 3
-7 -3 -11 -12z"/>
<path d="M8660 9430 c0 -5 4 -10 9 -10 6 0 13 5 16 10 3 6 -1 10 -9 10 -9 0
-16 -4 -16 -10z"/>
<path d="M6476 9412 c-7 -11 34 -45 43 -36 3 2 -4 14 -16 25 -13 13 -23 17
-27 11z"/>
<path d="M8491 9403 c0 -4 4 -17 9 -28 8 -19 9 -19 9 2 1 12 -3 25 -9 28 -5 3
-10 3 -9 -2z"/>
<path d="M8580 9370 c-9 -6 -10 -10 -3 -10 6 0 15 5 18 10 8 12 4 12 -15 0z"/>
<path d="M8427 9353 c-12 -12 -7 -22 8 -17 8 4 15 10 15 15 0 11 -14 12 -23 2z"/>
<path d="M9340 9215 c-24 -25 -41 -45 -38 -45 7 0 97 41 116 54 10 6 10 11 1
22 -18 22 -32 17 -79 -31z"/>
<path d="M13630 4794 c-278 -19 -497 -66 -554 -119 l-26 -24 0 -195 0 -195
108 -35 c377 -121 791 -134 1247 -40 116 24 259 66 270 79 8 10 12 259 6 377
-3 51 -137 101 -351 129 -140 19 -562 33 -700 23z"/>
<path d="M13052 2233 c3 -389 6 -455 21 -499 40 -119 98 -158 204 -136 84 17
120 51 172 160 25 51 48 92 52 92 4 0 21 -38 38 -85 44 -121 76 -181 129 -237
134 -143 309 -128 434 37 35 46 67 114 113 238 9 27 21 45 26 40 4 -4 24 -46
44 -93 41 -96 55 -114 107 -141 78 -40 178 -17 228 53 56 76 60 121 63 586 2
458 5 437 -53 407 -100 -51 -321 -109 -484 -126 -133 -14 -399 -6 -546 16
-121 18 -352 73 -459 110 -41 14 -78 25 -83 25 -5 0 -8 -193 -6 -447z"/>
<path d="M2795 2367 c-283 -72 -495 -345 -495 -637 0 -276 189 -536 450 -622
90 -29 272 -36 361 -14 222 57 388 211 466 431 24 71 27 94 27 205 0 111 -3
134 -27 205 -69 196 -210 340 -405 413 -56 21 -87 26 -197 28 -83 2 -148 -1
-180 -9z m221 -312 c88 -67 53 -134 -49 -91 -63 26 -107 93 -79 120 15 16 92
-2 128 -29z m257 -106 c29 -25 59 -65 79 -107 30 -61 33 -75 33 -157 -1 -77
-5 -98 -28 -147 -60 -123 -169 -197 -302 -206 -79 -5 -182 18 -191 43 -7 18
333 615 350 615 7 0 34 -18 59 -41z m-539 -332 c53 -30 84 -72 70 -95 -35 -56
-184 12 -184 84 0 11 3 24 7 27 14 14 69 6 107 -16z"/>
</g>
</svg>
